<svg id="Layer_1" enable-background="new 0 0 76 76" viewBox="0 0 76 76" xmlns="http://www.w3.org/2000/svg"><g id="Cat_Bowl"><path d="m68.680954 30.9097252c.0402908-1.8407879-1.6456909-3.3546867-3.6069336-2.715332-.1025391-.2612305-.2563477-.5058594-.4589844-.7138672-.6450233-.644043-1.6713905-.8564453-2.6171913-.5405273-1.1109505.3694248-1.7998886 1.27075-2.3571167 2.2949219-1.8693962-.0433483-3.7091637-.1833019-7.1695557.5703125.6627426-1.2739201.8128052-2.6834068.6447754-4.1098633.7681274-.1069336 1.5547485-.0812988 2.3135376.0932617.4077148.0952148.8066406-.159668.8989258-.5629883.0927734-.4038086-.159668-.8061523-.5629883-.8989258-.9614258-.2209473-1.9593506-.2509766-2.9310913-.1064453-.1298218-.4658203-.2941895-.9152832-.4721069-1.355957.7839355-.3481445 1.6295776-.557373 2.4852295-.6020508.4135742-.0214844.7314453-.3745117.7099609-.7880859-.0219727-.4140625-.390625-.7241211-.7880859-.7099609-1.0391846.0544434-2.0661621.3085938-3.0179443.7314453-.4781952-.9657955-.9900017-1.8858128-1.7471313-2.9365234.1019897-3.4946289-1.0115967-7.1694336-3.3286743-10.9267578-.4479561-.738605-1.3983192-1.7306223-2.1151123-1.6235352-1.2064018-.0387797-4.6814842 1.9968381-6.8238525 5.499023-.0006104.0009766-.0010376.0019531-.0016479.0029297-3.5372047-.3234015-6.8687973.277091-10.0328369 2.0124512-2.4112549-1.1564941-5.065918-1.8532715-7.7120972-1.9904785-2.8970051-.1804695-2.816185 1.1273994-3.0136719 3.6665039-.2755451 3.9340553.3948765 8.9786472 2.0360718 12.4619141-1.3157959.0668945-2.6189575.3852539-3.8026733.9692383-.3710938.1835938-.5239258.6333008-.3408203 1.0048828.1833172.3707371.6312294.5233822 1.0048828.3408203 1.1315308-.5585938 2.3913574-.8295898 3.6506958-.8286133.0467663.7902336.1651001 1.6240482.3805542 2.3925781-1.1304932.3325195-2.1675415.9833984-2.9052734 1.9038086-.2592773.3232422-.2075195.7954102.1157227 1.0541992.3227558.2591133.7950478.2075768 1.0541992-.1157227.5725098-.7138672 1.3891602-1.2058105 2.2730713-1.4401855 1.0429249 2.1157188 3.1340733 3.653511 5.2821045 4.4162598.2995701 7.4892578-4.2954445 12.0506706-4.9342041 18.7099609-.800293-.5302734-1.4813843-1.2021484-1.9608154-1.9658203-1.8525219-2.9473114-.4029083-6.4592857-.0004883-9.9428711.3320313-2.7998047-.1875-5.171875-1.5024414-6.8583984-2.015625-2.5952148-6.1855469-3.4902344-9.2988281-1.9951172-1.2431636.6020508-2.1489253 1.4892578-2.5493159 2.4956055-.5317383 1.3217773-.1206055 2.815918.9770508 3.5517578 1.1783638.7936745 2.6575112.5240898 3.6459956.9165039 1.0913086.4257813 1.5561523 1.7260742 1.5332031 2.8203125-.0367632 1.2982101-.5625973 2.7192421-.8085938 4.109375-1.1640129 6.5287399 3.4702587 13.0268173 11.2481079 13.9160156.0247803.0471191.0454712.0947266.071228.1416016-.0055256 1.2866859.0823574 2.5162621 1.4921875 3.7148476 1.7250919 1.4708176 6.5183811 2.4240494 8.7627563 2.7675781 1.880043.2938385 3.9873619.680954 4.8491821-1.0029297.0985107.0161133.1984863.0141602.2982178.0166016.9773178.0275345 1.7305984-.5255203 2.0041504-1.4008789.0011597-.0036621.00354-.0065918.0046387-.0102539 2.8913994-.7372894 5.7635193-1.7816391 8.2128296-3.5065956 1.9756546 1.4100685 5.6963425 2.9203529 7.7339478 1.7985878.5732422-.3242188 1.0087891-.8999023 1.1650391-1.5400391.0004883-.0019531.0009766-.003418.0014648-.0048828.9012146-.0601959 1.5310745-.7992668 1.5415039-1.6508827.9389725-.6586151 1.2290268-2.0665817.6875-3.0654297-.5716553-1.0899506-2.0475159-1.8721161-3.8969727-1.5209961 1.9114342-3.2935448.7347755-6.1253738-1.6403198-6.8813477.0001831-1.5766602-.0927734-3.1323242-.2772217-4.6464844 5.9135704-.0260201 10.3638-1.7579269 13.4273109-4.2363281 1.3696289-1.0908203 2.1665039-2.2636719 2.4375-3.5854492.1614456-.7769814-.1375427-1.4091415-.4645996-2.083252 1.4727173-.7429199 2.6398315-2.0905762 2.1564941-3.708252-.2763674-.9013669-1.0625002-1.5834958-1.9604494-1.8012692zm-21.0371132 8.2773437c1.2867355-2.3710632 3.3214378-3.6905594 5.9379883-4.3491211 3.3538208-.8642578 7.5759888-.8676758 9.8585815 1.5205078-3.6289711 2.5380555-10.8801803 3.9662896-15.7965698 2.8286133zm14.828125-10.8242187c.3989258-.1328125.84375-.0595703 1.0756836.171875.1708984.175293.2280273.4921875.1230469.6791992-.1488647.2646484-.116394.5808105.0553589.8120117-.8537636-.3098469-1.6841736-.4985867-2.4401245-.6123047.2910613-.4475498.6345443-.8666877 1.1860351-1.0507812zm-14.0302734-11.7148438c-1.7938347-1.9198866-3.5669556-3.0893669-5.4179077-3.8613281.8347778-1.5449219 1.5228271-3.1633301 2.0562134-4.8320308.0980835.124023.203186.2739253.3162842.4604487 1.7460936 2.8320313 2.7661132 5.5922852 3.0454101 8.2329102zm-4.9210816-8.7294917c-.5075073 1.5019526-1.1517334 2.9584956-1.9187012 4.3510737-1.1128426-.3493385-2.1189537-.5195732-2.2197876-.543457 1.0348397-1.507575 2.4156609-2.8185653 4.1384888-3.8076167zm-17.3660278 6.5371089c-1.1972599.8267403-2.6340427 2.1346283-3.7196045 3.6071777-.8521118-1.7805176-1.8863525-3.4631348-3.0897217-5.0275879 1.3332729-.0924567 4.2463131.3542214 6.8093262 1.4204102zm-7.6826172.8554688c.0201664-.2545881.0203247-.5612402.0269165-.9194336 1.177063 1.5979004 2.1792603 3.3173828 2.9764404 5.1386719-.9535942 1.6869221-1.6011906 3.5729485-1.8602905 5.581543-.7785759-2.4000741-1.3960552-6.1882764-1.1430664-9.8007813zm-7.8208008 25.5629883c-1.1672583-.4621239-2.6124783-.2632332-3.3588862-.765625-.5751953-.3857422-.6469727-1.1879883-.4208984-1.7495117.2626953-.659668.9052734-1.2646484 1.808105-1.7016602 2.4994221-1.1998405 5.8500872-.5116997 7.4638672 1.5649414 1.3486328 1.7304688 1.3950195 4.0878906 1.1962891 5.7626953-.0730591.6325684-.1883545 1.2783203-.3118896 1.9428711-1.2171021-.5898438-2.6765137-.652832-3.9411621-.1774902.2772701-2.5337525-.9001839-4.2767716-2.435425-4.8762207zm1.6489868 8.6145019c1.4712334-.9069443 3.1548557-1.0491943 4.2439575-.7006836-.2670898 2.0717773-.218811 4.1486816 1.0152588 6.1125488.7421875 1.1821289 1.8564453 2.1918945 3.1694336 2.8803711.0363426 1.2066612.2830868 2.6184692.6591797 3.7290039-6.3940868-1.1571311-10.0359373-6.6133575-9.0878296-12.0212402zm28.196106 16.0339394c.0963745-.1987305.1692505-.4077148.1920166-.625.0908203-.8535156-.3505859-1.7382851-1.1518555-2.3100624-1.0781937-.7683754-3.5022011-1.1515846-4.8046875-1.1699219 5.2457352-5.1825294.1321411-11.5450325-5.2788086-7.5161133-.3325195.2475586-.4013672.7172852-.1538086 1.0493164s.7177734.4013672 1.0493164.1538086c3.8491554-2.8648071 7.0624084 1.1854668 3.6342773 4.9296875-.7919922.8637695-1.7929688 1.5722656-2.7607422 2.2573242-.3305664.2338867-.4155273.6875-.1928711 1.0253906.2231445.3378906.6743164.4375 1.0180664.2260742 1.953434-1.1981812 5.7601433-.3458595 6.6186523.265625.4804573.3430901.7806435 1.0221443.2658691 1.297123-.6311035-.5297852-1.458313-.831543-2.276123-.7775879-.4130859.0258789-.7275391.3818359-.7016602.7954102s.3740234.7275391.7954102.7016602c.4581718-.026619 1.002388.1691742 1.2915039.5161133.2051926.2450638.143013.8070145-.2832642.8999023-.1932373.0456543-.4226685.0068359-.5580444-.1254883-.3397522-.3326187-1.6621361-.9711075-2.8447266-.7495117-.4072266.0771484-.6743164.4697266-.597168.8764648s.4702148.6743164.8764648.597168c.423584-.0810547.8851318.0131836 1.2600708.2365723-.3065529.5449829-1.165741.4623184-1.7849731.3796387-.5836182-.0661621-1.1741333-.1513672-1.7698364-.2475586-1.8838406-.3089828-6.285347-1.1518936-7.7282104-2.3803711-.8885365-.7563705-1.1679897-1.8123627-.9321289-2.5156288.0993652-.2973633.0012207-.6118164-.2219849-.8049316-1.2705154-2.334549-1.14645-4.4105721-1.232605-5.1887207.0618515-6.3696747 5.2513828-12.2190132 5.0361328-19.3671875l.3495483-.0634766c2.562439.5242844 5.2750206.3972626 7.8062134-.2226563.4023438-.0986328.6489258-.5043945.550293-.9067383-.0991211-.402832-.5073242-.6494141-.9067383-.550293-4.4683323 1.0947456-10.4758606.5199203-12.9659424-3.3930664.2023926.0249023.4032593.0639648.6002197.1196289.3969727.112793.8134766-.1191406.9257813-.5175781.112793-.3984375-.1191406-.8129883-.5175781-.9257813-.555542-.1572266-1.1323242-.2197266-1.7070313-.1999512-.1687813-.5565834-.2833328-1.0882092-.3533936-2.0126953.5646973.1044922 1.1187744.2663574 1.649292.4890137.3833008.1616211.8217773-.019043.9819336-.4008789.1606445-.3823242-.019043-.8217773-.4008789-.9819336-.7293701-.3061523-1.4973755-.5068359-2.2781372-.6242676-.0006714-.3283691-.0056763-.6491699.0003052-.9963379.0894718-4.9873447 2.824213-9.3145542 7.1025391-11.762207.000061 0 .0001831 0 .0002441-.0002441.0004272-.0002441.0007935-.0004883.0012207-.0007324 7.3182526-4.2147255 17.4036789-2.1001072 21.8896484 6.3564453.1574707.296875.3048096.5854492.4441528.8693848-.4616699.3103027-.8948975.6621094-1.2859497 1.057373-.4705582.4760857-.1258698 1.2773438.5332031 1.2773438.4749374 0 .4631195-.2709198 1.367981-.9321289.1245117.3212891.2330933.6381836.3231201.9506836-.4963989.1730957-.9768677.3928223-1.4298706.6630859-.3554688.2119141-.472168.6723633-.2597656 1.0283203.210125.35289.6695213.4733028 1.0283203.2597656.3010254-.1796875.6187134-.3276367.9442749-.4545898.1602516 1.8426609-.3285599 3.078764-1.4259033 4.3266602-4.6940918 1.4541016-7.6028442 3.8317871-7.6028442 6.237793 0 .0447044.0603409.2107468.0632324 1.9487305-.6677895 1.0553169-.2640686 2.2599297-.4099121 2.9975586-.0732422.3764648-.3793945.7988281-2.0429688.7734375-1.8598633-.0268555-3.6625977-.9321289-4.7045898-2.3618164-.2441406-.3344727-.7143555-.4082031-1.0478516-.1640625-.3344727.2436523-.4082031.7128906-.1640625 1.0478516 1.3139648 1.8027344 3.5727539 2.9438477 5.8920898 2.9780273 2.0791016.0415039 3.2749023-.6293945 3.5395508-1.9853516.1930809-.9808464-.1645584-1.9805222.2402344-2.5405273.1755905-.1935997.5831871-.2490463.8174438-.1901855.5382919.1383514.2817039.4264069.4266968 1.2102051.1719818 1.0254898 1.0277748 1.7265587 2.2104492 1.4716797.4936295-.1298103.8605804-.418869 1.1352539-.4824219.4418945-.09375.7236328.0615234.8876953.4731445-.0327148.0493164-.2167969.1630859-.512207.2148438-.9078484.1580849-.7885132 1.5316353.1767578 1.4873047.3080902-.0150299.6423759.339283.5913086.6435547-.0380859.2397461-.3286133.4580078-.609375.4580078l-.081543-.0097656c-1.0209846-.4429283-1.5735664.996685-.6015625 1.3803711.0249023.0136719.0498047.0263672.0756836.0375977.1650391.0712891.3012695.284668.2978516.4580078-.0048828.1547852-.0556641.246582-.0839844.25-.4146271-.113224-.944191-.8770218-1.9794922.0571289-3.9413681 3.5660019-9.4415512 3.3794937-13.0629883.3232422-.3168945-.2666016-.7900391-.2275391-1.0571289.0893555s-.2270508.7900391.0893555 1.0571289c3.5139694 2.9653854 8.5997581 3.6109695 12.9047852 1.1987305.7402344-.421875 1.4316406-.9248047 2.1113281-1.5371094 1.4983215.9041595 2.7644653-.2977638 2.5541382-1.7143555.4531326.0364227 1.1962051.0820198 1.2964478.0864258.2704735 2.1146507.3523216 4.2602654.2480469 6.5986328-.1030273 2.253418-.434082 5.1015625-2.0927734 7.1411133-2.3274992 2.8621746-5.6988714 4.4369999-9.23645 5.4843785zm13.7301025-9.5376015c-.3422852.9829102-.980957 1.8691406-1.7192383 2.8432617-.459877.6066017.1782455 1.4397011.8881836 1.1445313.8022461-.3369141 1.6323242-.6855469 2.4448242-.7114258.9754791-.0380516 2.0816345.5586472 1.7602539 1.5507813-.7254028-.5102539-1.6471558-.737793-2.5268555-.5932617-.4086914.0673828-.6855469.453125-.6186523.8618164.0673828.4091797.4560547.684082.8618164.6186523.4476318-.0727539.9188843.041748 1.3085938.279541-.0057983.1308594.0126343.2617188.0751953.3806152.0353241.0681725-.0026512.2026405-.1135864.2202148-.1919632-.2227631-.600975-.3332062-.7715454-.3359375l-1.81604-.4106445c-.4057617-.0927734-.8061523.1625977-.8969727.565918-.0913086.4038086.1621094.8056641.565918.8969727l1.5532227.3513184c-.0326347.3038101-.2391891.5585442-.4487305.6770058-.4155273.2290039-.9921875.2651367-1.8198242.1181641-1.4033203-.2441406-2.7490234-.7744179-3.940918-1.5483437 3.3473244-2.8167534 4.1400185-5.7558479 4.3286133-10.3164063 1.1760902.6708831 1.3302841 2.1296234.8857421 3.4072265zm13.2543984-17.7866211c-.0004883.0009766-.0004883.0019531-.0009766.0029297-.1967773.9633789-.8193359 1.8510742-1.9067383 2.7172852-3.9846992 3.2229156-9.3526115 4.1686211-14.4668007 3.8525391.2584114-.6741142.1120834-1.4537277-.4233398-2.0473633-.003418-.0039063-.0068359-.0078125-.0107422-.0117188.3751297-.5039024.3540306-1.0671234.0898438-1.637207 4.6354675.1168594 10.8056793-1.1647034 14.2343788-4 .0009766-.0007324.0016479-.001709.0026245-.0024414.0003662-.0002441.0009155-.0007324.0012817-.0009766s.0006714-.0004883.0010376-.0009766c.0004272-.0002441.0009766-.0004883.0014038-.0009766.0002441-.0002441.0003662-.0004883.0006104-.0007324.6457596-.5301132 1.1423721-1.1156387 1.4324951-1.579834.1158981.2657013.5924988 1.3693085.7426758 1.6767578.1943359.3994141.3623047.7441407.3022461 1.0327149zm.4001465-3.15625c-.5282822-1.2033463-.6118546-1.461647-.9017334-1.885498-.1959534-1.3137512-1.3410797-2.2780495-2.546936-2.8344727.1851807-.0268555.3601685-.1203613.4830933-.2785645.3598633-.4604492 1.0839844-.6352539 1.5810547-.3828125.5541992.2802734.8422852 1.0810547.5922852 1.6479492-.2435455.55196.2335052 1.1487923.8173828 1.0410156.5219727-.09375 1.144043.2895508 1.2998047.7963867.2496946.8349611-.6047365 1.5124513-1.3249513 1.8959962z"/><path d="m44.0845146 24.7317467c.7830811-.2028809 1.1254883-1.496582.7647705-2.8896484-.3607178-1.3933105-1.2879639-2.3581543-2.0710449-2.1555176-.7831421.2028809-1.1254883 1.496582-.7647705 2.8896484.3607178 1.3933105 1.2879639 2.3583984 2.0710449 2.1555176z"/><path d="m30.7786064 22.102108c-.8813477.2280273-1.2615356 1.7041016-.8491821 3.2966309s1.4610596 2.6984863 2.3424072 2.470459c.8813477-.2282715 1.2615356-1.7043457.8492432-3.296875-.4123535-1.5925294-1.4611206-2.6984864-2.3424683-2.4702149z"/><path d="m39.1306572 30.8672447c.8867989.4588661 1.9575844.1599751 2.5004883-.597168.4482422-.625.4794922-1.4819336.078125-2.1323242-.2172852-.3525391-.6796875-.4614258-1.0322266-.2441406s-.4619141.6796875-.2441406 1.0322266c.2953568.478199-.4860992.9930573-.8236694.3793945.0011024-.2853394.0134392-.0076866-.2476807-1.1069336 1.5420418-.8497295 1.9721336-2.6744003.0947876-2.8012695-.8748169-.0585938-1.7625122.0820313-2.5762939.4084473-.3794556.1520996-.7677002.3688965-.9416504.7390137-.3419304.7269802.2735367 1.7916527 1.4934082 2.0043945.1567383.0273438.31604.0166016.4747925.0146484.0222816.218298.427536 1.1257381.0062866 1.3974609-.3216743.2056274-.8549385.0255871-1.0571289-.5288086-.1411133-.3896484-.5737305-.5874023-.9614258-.4477539-.3891602.1416016-.5898438.5722656-.4477539.9614258.2299805.6303711.6938477 1.1416016 1.2719727 1.402832.8112144.3667145 1.8194732.2103749 2.4121093-.4814453z"/><path d="m67.439743 13.520565c-1.0610352.434082-2.0581055 1.0424805-2.9370117 1.7866211l.3378906-5.9848633c.0514908-.9161816-1.0874329-1.42241-1.7211952-.7333984-1.4370117 1.5576172-2.612793 3.3886719-3.4404297 5.3466797l-1.0634766-2.0512695c-.385685-.7437449-1.4539452-.7005606-1.7871094.0600586l-2.1123047 4.8530273c-.1655273.3798828.0083008.8217773.3881836.9868164.3813477.1660156.8222656-.0087891.9868164-.3881836l1.6850586-3.871582 1.0966797 2.1152344c.4028473.7743702 1.5205269.681509 1.8066406-.1323242.5942383-1.7006836 1.4746094-3.3212891 2.5776367-4.7563477l-.3251953 5.7612305c-.0518723.9337044 1.093441 1.4016228 1.7202187.722168.6191406-.6674805 1.3398438-1.2470703 2.1254883-1.7124023l-1.78125 4.0341797c-.1674805.3789063.0043945.8212891.3833008.9887695.374733.1659298.8206177-.0011501.9887695-.3833008l2.3486328-5.3193359c.3602601-.815672-.4595717-1.6578771-1.2773437-1.3217775z"/></g></svg>