<?xml version="1.0" encoding="UTF-8"?> <svg xmlns="http://www.w3.org/2000/svg" id="Layer_1" data-name="Layer 1" viewBox="0 0 76 76"><defs><style> .cls-1, .cls-2 { stroke-width: 0px; } .cls-2 { fill: #fff; } </style></defs><path class="cls-2" d="m54.72,16.79l2.11-4.85c.33-.76,1.4-.8,1.79-.06l1.06,2.05c.83-1.96,2-3.79,3.44-5.34.63-.69,1.77-.19,1.72.73l-.34,5.98c.88-.74,1.88-1.35,2.94-1.78.82-.34,1.64.5,1.28,1.32l-2.35,5.32c-.17.38-.62.55-.99.38-.38-.17-.55-.61-.38-.99l1.78-4.03c-.79.46-1.51,1.04-2.13,1.71-.62.68-1.77.21-1.72-.72l.33-5.76c-1.11,1.43-1.99,3.05-2.58,4.75-.29.82-1.4.91-1.81.14l-1.09-2.12-1.69,3.87c-.16.38-.6.56-.99.39-.38-.16-.55-.61-.38-.99Z"></path><path class="cls-2" d="m68.48,36.42c.33.67.63,1.3.47,2.08-.27,1.32-1.07,2.49-2.44,3.58-3.06,2.48-7.51,4.21-13.43,4.24.19,1.51.28,3.07.28,4.65,2.38.75,3.55,3.58,1.64,6.88,1.85-.35,3.33.43,3.9,1.52.54,1,.25,2.41-.69,3.06-.01.86-.64,1.6-1.54,1.66-.16.64-.59,1.22-1.17,1.54-2.03,1.12-5.75-.39-7.73-1.8-2.45,1.73-5.32,2.77-8.21,3.51h-.01c-.27.88-1.02,1.44-2,1.41-.1,0-.2,0-.3-.02-.86,1.69-2.97,1.3-4.85,1.01-2.24-.35-7.04-1.3-8.76-2.77-1.41-1.2-1.5-2.43-1.49-3.72-.03-.04-.05-.09-.08-.14-7.77-.89-12.41-7.39-11.24-13.91.24-1.39.77-2.82.81-4.11.02-1.1-.45-2.4-1.54-2.82-.99-.4-2.47-.13-3.64-.92-1.1-.74-1.51-2.23-.98-3.55.4-1.01,1.3-1.9,2.55-2.5,3.11-1.49,7.28-.6,9.3,2,1.31,1.68,1.83,4.06,1.5,6.86-.4,3.48-1.85,6.99,0,9.94.48.76,1.16,1.43,1.96,1.96.64-6.65,5.23-11.22,4.93-18.71-2.14-.76-4.23-2.3-5.28-4.41-.88.23-1.7.72-2.27,1.44-.26.32-.73.37-1.05.11-.33-.25-.38-.73-.12-1.05.74-.92,1.77-1.57,2.91-1.9-.22-.77-.34-1.61-.39-2.4-1.25,0-2.51.27-3.65.83-.37.18-.82.03-1-.34-.18-.37-.03-.82.34-1,1.18-.59,2.49-.91,3.8-.97-1.64-3.49-2.31-8.53-2.03-12.46.19-2.54.11-3.85,3.01-3.67,2.65.14,5.3.83,7.71,1.99,3.17-1.74,6.5-2.34,10.03-2.01t.01,0c2.14-3.5,5.61-5.53,6.82-5.49.72-.11,1.67.88,2.12,1.62,2.31,3.76,3.43,7.43,3.32,10.93.76,1.05,1.27,1.97,1.75,2.93.95-.42,1.98-.68,3.02-.73.4,0,.77.3.79.71.02.41-.3.77-.71.79-.86.04-1.7.25-2.49.6.18.44.34.89.47,1.36.98-.15,1.97-.12,2.94.1.4.1.65.5.56.9-.09.41-.49.66-.9.56-.76-.17-1.55-.2-2.31-.09.16,1.43.01,2.84-.65,4.11,3.46-.75,5.3-.61,7.17-.57.56-1.02,1.25-1.92,2.36-2.29.94-.32,1.97-.11,2.62.54.2.2.35.45.45.71,1.97-.64,3.65.88,3.61,2.72.9.21,1.69.9,1.96,1.8.48,1.61-.68,2.96-2.16,3.71Z"></path><g id="Cat_Bowl" data-name="Cat Bowl"><path class="cls-1" d="m70.64,32.71c-.27-.9-1.06-1.59-1.96-1.8.04-1.84-1.64-3.36-3.61-2.72-.1-.26-.25-.51-.45-.71-.65-.65-1.68-.86-2.62-.54-1.11.37-1.8,1.27-2.36,2.29-1.87-.04-3.71-.18-7.17.57.66-1.27.81-2.68.65-4.11.76-.11,1.55-.08,2.31.09.41.1.81-.15.9-.56.09-.4-.16-.8-.56-.9-.97-.22-1.96-.25-2.94-.1-.13-.47-.29-.92-.47-1.36.79-.35,1.63-.56,2.49-.6.41-.02.73-.38.71-.79-.02-.41-.39-.72-.79-.71-1.04.05-2.07.31-3.02.73-.48-.96-.99-1.88-1.75-2.93.11-3.5-1.01-7.17-3.32-10.93-.45-.74-1.4-1.73-2.12-1.62-1.21-.04-4.68,1.99-6.82,5.49t-.01,0c-3.53-.33-6.86.27-10.03,2.01-2.41-1.16-5.06-1.85-7.71-1.99-2.9-.18-2.82,1.13-3.01,3.67-.28,3.93.39,8.97,2.03,12.46-1.31.06-2.62.38-3.8.97-.37.18-.52.63-.34,1,.18.37.63.52,1,.34,1.14-.56,2.4-.83,3.65-.83.05.79.17,1.63.39,2.4-1.14.33-2.17.98-2.91,1.9-.26.32-.21.8.12,1.05.32.26.79.21,1.05-.11.57-.72,1.39-1.21,2.27-1.44,1.05,2.11,3.14,3.65,5.28,4.41.3,7.49-4.29,12.06-4.93,18.71-.8-.53-1.48-1.2-1.96-1.96-1.85-2.95-.4-6.46,0-9.94.33-2.8-.19-5.18-1.5-6.86-2.02-2.6-6.19-3.49-9.3-2-1.25.6-2.15,1.49-2.55,2.5-.53,1.32-.12,2.81.98,3.55,1.17.79,2.65.52,3.64.92,1.09.42,1.56,1.72,1.54,2.82-.04,1.29-.57,2.72-.81,4.11-1.17,6.52,3.47,13.02,11.24,13.91.03.05.05.1.08.14-.01,1.29.08,2.52,1.49,3.72,1.72,1.47,6.52,2.42,8.76,2.77,1.88.29,3.99.68,4.85-1.01.1.02.2.02.3.02.98.03,1.73-.53,2-1.4h.01c2.89-.75,5.76-1.79,8.21-3.52,1.98,1.41,5.7,2.92,7.73,1.8.58-.32,1.01-.9,1.17-1.54.9-.06,1.53-.8,1.54-1.66.94-.65,1.23-2.06.69-3.06-.57-1.09-2.05-1.87-3.9-1.52,1.91-3.3.74-6.13-1.64-6.88,0-1.58-.09-3.14-.28-4.65,5.92-.03,10.37-1.76,13.43-4.24,1.37-1.09,2.17-2.26,2.44-3.58.16-.78-.14-1.41-.47-2.08,1.48-.75,2.64-2.1,2.16-3.71Zm-59.99,8.16c-1.17-.46-2.61-.26-3.36-.77-.57-.38-.64-1.18-.42-1.74.26-.66.91-1.27,1.81-1.71,2.5-1.2,5.85-.51,7.46,1.57,1.35,1.73,1.4,4.09,1.2,5.76-.07.63-.19,1.28-.31,1.94-1.22-.59-2.68-.65-3.94-.17.27-2.54-.9-4.28-2.44-4.88Zm1.65,8.61c1.47-.9,3.16-1.04,4.24-.7-.26,2.08-.21,4.15,1.02,6.12.74,1.18,1.86,2.19,3.17,2.88.04,1.2.28,2.62.66,3.73-6.4-1.16-10.04-6.62-9.09-12.03Zm50.17-21.12c.4-.13.85-.06,1.08.17.17.18.23.49.12.68-.15.26-.12.58.06.81-.86-.31-1.69-.5-2.44-.61.29-.45.63-.87,1.18-1.05Zm-8.89,6.47c3.36-.86,7.58-.86,9.86,1.52-3.63,2.54-10.88,3.97-15.8,2.83,1.29-2.37,3.33-3.69,5.94-4.35Zm-8.5-26.88c.1.12.2.27.32.46,1.74,2.83,2.76,5.59,3.04,8.23-1.79-1.92-3.57-3.09-5.42-3.86.84-1.54,1.53-3.16,2.06-4.83Zm-1.56-.04c-.51,1.51-1.15,2.96-1.92,4.36-1.11-.35-2.12-.52-2.22-.55,1.04-1.51,2.42-2.82,4.14-3.81Zm-17.37,6.54c-1.19.83-2.63,2.14-3.72,3.61-.85-1.78-1.88-3.46-3.08-5.03,1.33-.09,4.24.36,6.8,1.42Zm-6.53,10.66c-.78-2.4-1.4-6.19-1.15-9.8.02-.26.02-.56.03-.92,1.18,1.6,2.18,3.32,2.98,5.14-.96,1.68-1.61,3.57-1.86,5.58Zm20.88,40.41c.09-.2.17-.41.19-.63.09-.85-.35-1.73-1.15-2.31-1.08-.76-3.51-1.15-4.81-1.17,5.25-5.18.13-11.54-5.28-7.51-.33.25-.4.71-.15,1.05.25.33.72.4,1.05.15,3.85-2.86,7.06,1.19,3.63,4.93-.79.86-1.79,1.57-2.76,2.26-.33.23-.41.69-.19,1.02.22.34.67.44,1.02.23,1.95-1.2,5.76-.35,6.62.26.48.35.78,1.03.26,1.3-.63-.53-1.46-.83-2.27-.78-.42.03-.73.39-.71.8.03.41.38.73.8.7.46-.03,1,.17,1.29.52.21.24.14.8-.28.9-.2.04-.43,0-.56-.13-.34-.33-1.66-.97-2.85-.75-.4.08-.67.47-.59.88.07.41.47.67.87.6.43-.08.89.01,1.26.23-.3.55-1.16.46-1.78.38-.58-.06-1.17-.15-1.77-.25-1.88-.3-6.29-1.15-7.73-2.38-.89-.75-1.17-1.81-.93-2.51.1-.3,0-.61-.22-.81-1.27-2.33-1.15-4.41-1.24-5.18.07-6.37,5.26-12.22,5.04-19.37l.35-.07c2.56.53,5.28.4,7.81-.22.4-.1.65-.5.55-.9-.1-.41-.51-.65-.91-.56-4.47,1.1-10.48.52-12.97-3.39.21.03.41.07.6.12.4.11.82-.12.93-.52.11-.39-.12-.81-.52-.92-.55-.16-1.13-.22-1.7-.2-.17-.56-.29-1.09-.36-2.01.57.1,1.12.26,1.65.48.38.17.82,0,.98-.4.16-.38-.02-.82-.4-.98-.73-.3-1.5-.51-2.28-.62v-1c.09-4.99,2.83-9.31,7.11-11.76,2.44-1.4,5.18-2.11,7.92-2.11,5.49,0,10.97,2.82,13.97,8.46.16.3.3.59.44.87-.46.31-.89.67-1.28,1.06-.47.48-.13,1.28.53,1.28.47,0,.46-.27,1.37-.93.12.32.23.63.32.95-.5.17-.98.39-1.43.66-.35.21-.47.67-.26,1.03.21.35.67.47,1.03.26.3-.18.62-.33.94-.46.16,1.85-.33,3.08-1.42,4.33-4.7,1.45-7.61,3.83-7.61,6.24,0,.04.07.21.07,1.95-.67,1.05-.27,2.26-.41,2.99-.08.38-.38.8-2.04.78-1.86-.03-3.67-.93-4.71-2.36-.24-.34-.71-.41-1.05-.17-.33.25-.41.71-.16,1.05,1.31,1.8,3.57,2.94,5.89,2.98,2.08.04,3.28-.63,3.54-1.99.19-.98-.16-1.98.24-2.54.18-.19.58-.25.82-.19.54.14.28.43.42,1.21.18,1.03,1.03,1.73,2.22,1.47.49-.13.86-.42,1.13-.48.44-.09.72.06.89.47-.03.05-.22.17-.51.22-.91.16-.79,1.53.17,1.49.31-.02.64.34.59.64-.03.24-.32.46-.61.46h-.08c-1.02-.45-1.57.98-.6,1.37.03.01.05.02.08.04.16.07.3.28.29.45,0,.16-.05.25-.08.25-.41-.11-.94-.87-1.98.06-3.94,3.57-9.44,3.38-13.06.32-.32-.26-.79-.22-1.06.09-.27.32-.23.79.09,1.06,3.51,2.97,8.6,3.61,12.91,1.2.74-.42,1.43-.93,2.11-1.54,1.5.91,2.76-.3,2.55-1.71.45.03,1.2.08,1.3.08.27,2.12.35,4.26.25,6.6-.11,2.26-.44,5.1-2.1,7.14-2.32,2.87-5.7,4.44-9.23,5.49Zm12.84-12.95c1.18.67,1.33,2.13.89,3.41-.35.98-.98,1.87-1.72,2.84-.46.61.18,1.44.89,1.15.8-.34,1.63-.69,2.44-.71.98-.04,2.08.56,1.76,1.55-.73-.51-1.65-.74-2.53-.59-.41.06-.68.45-.62.86.07.41.46.68.87.62.44-.08.92.04,1.31.28-.01.13.01.26.07.38.04.06,0,.2-.11.22-.2-.23-.6-.34-.77-.34l-1.82-.41c-.41-.09-.81.16-.9.57-.09.4.16.8.57.89l1.55.35c-.03.31-.24.56-.45.68-.41.23-.99.27-1.82.12-1.4-.25-2.75-.78-3.94-1.55,3.35-2.82,4.14-5.76,4.33-10.32Zm14.14-14.38h0c-.2.97-.82,1.86-1.91,2.72-3.98,3.23-9.35,4.17-14.46,3.86.25-.68.11-1.46-.43-2.05,0,0,0-.01-.01-.01.38-.51.36-1.07.09-1.64,4.64.12,10.81-1.16,14.24-4h0c.65-.54,1.15-1.12,1.44-1.58.11.26.59,1.36.74,1.67.19.4.36.75.3,1.03Zm.4-3.15c-.53-1.21-.61-1.46-.9-1.89-.2-1.31-1.34-2.28-2.55-2.83.19-.03.36-.12.49-.28.36-.46,1.08-.64,1.58-.38.55.28.84,1.08.59,1.64-.24.56.23,1.15.82,1.05.52-.1,1.14.29,1.3.79.25.84-.61,1.51-1.33,1.9Z"></path><path class="cls-1" d="m44.08,24.73c.78-.2,1.13-1.5.76-2.89-.36-1.39-1.29-2.36-2.07-2.16-.78.2-1.13,1.5-.76,2.89.36,1.39,1.29,2.36,2.07,2.16Z"></path><path class="cls-1" d="m30.78,22.1c-.88.23-1.26,1.7-.85,3.3s1.46,2.7,2.34,2.47c.88-.23,1.26-1.7.85-3.3-.41-1.59-1.46-2.7-2.34-2.47Z"></path><path class="cls-1" d="m39.13,30.87c.89.46,1.96.16,2.5-.6.45-.62.48-1.48.08-2.13-.22-.35-.68-.46-1.03-.24s-.46.68-.24,1.03c.3.48-.49.99-.82.38,0-.29.01,0-.25-1.11,1.54-.85,1.97-2.67.09-2.8-.87-.06-1.76.08-2.58.41-.38.15-.77.37-.94.74-.34.73.27,1.79,1.49,2,.16.03.32.02.47.01.02.22.43,1.13,0,1.4-.32.21-.85.03-1.06-.53-.14-.39-.57-.59-.96-.45-.39.14-.59.57-.45.96.23.63.69,1.14,1.27,1.4.81.37,1.82.21,2.41-.48Z"></path><path class="cls-1" d="m68.72,14.84l-2.35,5.32c-.17.38-.62.55-.99.38-.38-.17-.55-.61-.38-.99l1.78-4.03c-.79.46-1.51,1.04-2.13,1.71-.62.68-1.77.21-1.72-.72l.33-5.76c-1.11,1.43-1.99,3.05-2.58,4.75-.29.82-1.4.91-1.81.14l-1.09-2.12-1.69,3.87c-.16.38-.6.56-.99.39-.38-.16-.55-.61-.38-.99l2.11-4.85c.33-.76,1.4-.8,1.79-.06l1.06,2.05c.83-1.96,2-3.79,3.44-5.34.63-.69,1.77-.19,1.72.73l-.34,5.98c.88-.74,1.88-1.35,2.94-1.78.82-.34,1.64.5,1.28,1.32Z"></path></g></svg> 