<?xml version="1.0" encoding="UTF-8"?> <svg xmlns="http://www.w3.org/2000/svg" id="Layer_1" data-name="Layer 1" viewBox="0 0 76 76"><defs><style> .cls-1, .cls-2 { stroke-width: 0px; } .cls-2 { fill: #fff; } </style></defs><path class="cls-2" d="m56.72,10.97l1.13-2.51c.17-.38.62-.55.99-.38.38.17.55.62.38.99l-1.13,2.51c-.17.38-.61.55-.99.38-.38-.17-.55-.62-.38-.99Z"></path><path class="cls-2" d="m65.92,15.49c.11.4-.12.81-.52.92l-3.33.91c-.4.11-.81-.12-.92-.53-.11-.4.13-.81.53-.92l3.32-.9c.4-.11.81.12.92.52Z"></path><path class="cls-2" d="m59.23,12.85l5.89-4.51c.33-.25.8-.19,1.06.14.25.33.18.8-.14,1.05l-5.9,4.51c-.33.25-.8.19-1.05-.14-.26-.33-.19-.8.14-1.05Z"></path><path class="cls-2" d="m69.48,42.5c-.08,3.92-.23,2.45-.15,7.44.1,5.99-.11,4.79.07,12.47.08,2.2-.74,2.51-2.68,3.51-.86.44-1.63.85-2.46,1.11-13.95,4.32-23.15,4.14-29,3.07-2.49-.4-4.81-1.02-6.88-1.87-2.07-.82-5.06-1.91-5.11-4.16-.04-3.02.05-.04-.09-7.68-1.2,3.29-2.86,6.78-4.93,9.63-1.08,1.55-2.78,3.15-4.53,3.91-1.82.82-2.69.92-5.13-.9-.32-.24-.55-.5-.69-.77-2.55-2.03-1.28-9.59,1.4-16.18,2.51-6.18,6.02-11.09,8.74-12.22.9-.37,1.79-.39,2.59.17.19.06.01-.02,2.07.83.25.09.47.22.68.35.45-.97,1.65-1.83,3.66-2.6-3.49-5.79-3.11-12.88.41-18.53.69-1.1,1.47-2.12,2.34-3.06-.14.06-.28.13-.42.2-.5.24-1.1-.14-1.08-.71.09-2.38,1.89-4.67,4.45-4.91-.23-1.27.23-2.6.93-3.53.92-1.23,2.25-2.02,3.42-2.71.68-.4,1.44.38,1.02,1.05-.49.78-.76,1.7-.79,2.62.81-.56,1.82-1.48,3.58-1.72,1.95-.26,4,.4,5.41,1.8.5.49.11,1.34-.6,1.28-.62-.07-1.24,0-1.84.17.22.11.43.24.64.39,3.24,0,6.11.65,8.79,2.51,3.06,2.13,5.27,5.49,6.05,9.13.63-.25,1.31-.42,2.14-.27,1.01.17,1.97.8,2.54,1.67.31.47,0,1.11-.57,1.16-.91.06-1.81.56-2.19,1,.23.29,1.04.89,1.64,2.5.58,1.63.52,3.48-.18,5.06-.23.51-.91.6-1.26.18-.13.75-.47,2.12-.74,2.9,4.29.76,8.83,1.86,8.75,5.58v.13Z"></path><g id="Cute_Chick" data-name="Cute Chick"><path class="cls-1" d="m69.48,42.37c.08-3.72-4.46-4.82-8.75-5.58.27-.78.61-2.15.74-2.9.35.42,1.03.33,1.26-.18.7-1.58.76-3.43.18-5.06-.6-1.61-1.41-2.21-1.64-2.5.38-.44,1.28-.94,2.19-1,.57-.05.88-.69.57-1.16-.57-.87-1.53-1.5-2.54-1.67-.83-.15-1.51.02-2.14.27-.78-3.64-2.99-7-6.05-9.13-2.68-1.86-5.55-2.51-8.79-2.51-.21-.15-.42-.28-.64-.39.6-.17,1.22-.24,1.84-.17.71.06,1.1-.79.6-1.28-1.41-1.4-3.46-2.06-5.41-1.8-1.76.24-2.77,1.16-3.58,1.72.03-.92.3-1.84.79-2.62.42-.67-.34-1.45-1.02-1.05-1.17.69-2.5,1.48-3.42,2.71-.7.93-1.16,2.26-.93,3.53-2.56.24-4.36,2.53-4.45,4.91-.02.57.58.95,1.08.71.14-.07.28-.14.42-.2-.87.94-1.65,1.96-2.34,3.06-3.52,5.65-3.9,12.74-.41,18.53-2.01.77-3.21,1.63-3.66,2.6-.21-.13-.43-.26-.68-.35-2.06-.85-1.88-.77-2.07-.83-.8-.56-1.69-.54-2.59-.17-2.72,1.13-6.23,6.04-8.74,12.22-2.68,6.59-3.95,14.15-1.4,16.18.14.27.37.53.69.77,2.44,1.82,3.31,1.72,5.13.9,1.75-.76,3.45-2.36,4.53-3.91,2.07-2.85,3.73-6.34,4.93-9.63.14,7.64.05,4.66.09,7.68.05,2.25,3.04,3.34,5.11,4.16,2.07.85,4.39,1.47,6.88,1.87,5.85,1.07,15.05,1.25,29-3.07.83-.26,1.6-.67,2.46-1.11,1.94-1,2.76-1.31,2.68-3.51-.18-7.68.03-6.48-.07-12.47-.08-4.99.07-3.52.15-7.44v-.13Zm-55.49,11.67c1.9-4.67,4.45-8.69,6.62-10.53-.02.1.6,4.31-2.63,12.25-1.34,3.28-3.92,8.27-6.62,10.54-.26-2.86.73-7.56,2.63-12.26Zm9.16-2.67c-1.05,4.38-3.34,9.96-6.12,13.77-1.08,1.47-2.42,2.76-3.98,3.44-1.08.5-1.45.6-2.49-.02,3.68-1.45,7.31-8.55,8.81-12.24,1.53-3.78,3.48-10.31,2.53-14.17,2.99,1.23,2.04,5.89,1.25,9.22Zm4.78-11.48c.14.19.27.38.43.56-1.24.55-2.19,1.51-2.79,2.7-.29-.19-.64-.45-.81-.76,0,0,0,0-.01,0-.08-.16-.05-.18-.08-.28,0-.49.88-1.35,3.26-2.21Zm1.02,26.95l-.46-.18c-1.38-.55-3.69-1.46-3.72-2.62-.01-.77-.01-1.53-.01-2.3,0-2.86-.2-9.82-.11-10.2.16-.7.33-1.56.43-2.17.06.21.2.63.32.92.61,1.45.69,3.07.25,4.54-.19.6.41,1.14.99.92,1.87-.73,3.53-2.08,4.69-3.78v13.55c0,.53-.24,1.63.01,2.1.02.02.04.04.05.06-.84-.25-1.67-.52-2.44-.84Zm3.97-16.06c-.08-.65-.15-1.27-.22-1.86-.1-.8-1.23-.9-1.46-.13-.65,2.1-2.09,3.85-3.85,4.92.13-1.35-.07-2.72-.6-4-.68-1.64-.74-3.65-.15-5.25.95-2.67,3.09-2.85,3.19-2.92,1.98-.43,4.25.48,5.21,2.07.96,1.56.71,5.29-2.12,7.17Zm13.5,18.42c-2.69.11-5,.05-7.27-.14.16-.34.18,1.28-.42-21.02,0-.19-.02-.38-.04-.58,3.64.26,6.95.19,7.73.19v21.55Zm4.22-24.64c.09.4.5.65.9.55.49-.12.94-.27,1.38-.43.02.1.1.54.19.86-1.54.13-3.29.38-4.93.51.42-.61-.18-1.36-.85-1.13-3.22,1.09-6.88.98-10.37-.28-.53-3.28-3.95-5.07-6.99-4.63-4.66-5.13-5.13-12.91-1.25-19.13,1.11-1.79,2.5-3.34,4.12-4.65.71.09,1.44.44,1.71,1.08.16.38.6.56.98.4.38-.16.56-.6.4-.98-.58-1.37-2.03-1.98-3.31-2.02-.84-.03-1.73.21-2.51.52.29-.65.77-1.23,1.23-1.57.6-.46,1.47-.67,2.38-.56.53.06,1-.2.57-1.5-.29-.88.07-1.94.58-2.63.3-.4.67-.75,1.07-1.07-.1.52-.14,1.04-.11,1.57.03.79.22,1.49.26,1.59.24.74,1.27.63,1.44-.09.36-.61.61-.63,1.06-1,1.02-.83,2.06-1.25,3.35-1.2.55.02,1.09.13,1.61.32-.99.27-1.91.77-2.65,1.47-.28.25-.32.67-.11.97.21.3.62.42.96.25,1.11-.57,2.97,1,3.35,2.19.27.85.13,1.81-.32,2.59-.95-3.48-4.46-4.19-6.07-2.31-.27.32-.24.79.08,1.06.31.27.79.23,1.06-.08.7-.82,2.28-.66,3.12.83.33.57.51,1.3.56,2.17.03.59.69.91,1.17.58,1.92-1.31,2.73-4.16,1.33-6.3,2.51.2,4.57.9,6.42,2.19,2.98,2.07,5.07,5.45,5.58,9.05.03.24.17.44.38.55.43.25.79-.04.94-.09.88-.38,1.55-.67,2.5-.21-.8.33-1.89,1.04-2.09,1.88-.2.9.7,1.54.95,1.87.91,1.14,1.24,2.61,1.04,4.01-.08-.11-.55-.74-.62-.83-.26-.32-.72-.37-1.05-.12-.32.25-.38.71-.14,1.04.01.1.5.19-.27,3.23-.06.18-.16.95-.88,2.45-.1.01-.92,0-1.92.33-1.1.36-2.13.99-2.84,1.9-1.15,1.48-1.14,3.23-1.18,3.33-.51.22-1.07.41-1.67.56-.4.1-.65.51-.54.91Zm12.17,21.4c-2.33.87-4.18,1.48-7.39,2.13.18-.54.14.53.14-18.55.93.98,1.16.86,1.63,3.11.21,1.03.35,2.11,1.41,2.31.68.13,1.31-.3,1.74-.84,1.08-1.32,1.91-2.81,2.47-4.39v16.23Zm1.22-18.18c-.15-.46-.34-.92-.58-1.36-.15-.29-.46-.46-.79-.4-.32.05-.57.31-.62.63-.34,2.39-1.33,4.64-2.86,6.53-.31.39-.26.43-.52-.84-.65-3.1-1.18-2.8-2.52-4.4-.59-.7-1.31-1.79-1.55-2.67-.51-1.68-.25-3.98,1.12-5.11.98-.8,2.38-1.2,3.55-1.13,3.68.19,5.86,4.97,4.77,8.75Zm3.81-6.38c-.07.75-1.68,1.53-2.37,1.83-.48-1.74-1.48-3.46-2.89-4.53,4.04.95,5.24,2.08,5.26,2.64v.06Z"></path><path class="cls-1" d="m56.15,34.56c-.99-.34-1.71-1.16-2.83-2.14,1.29-.75,2.16-2.23,2.17-3.94h0c.02-2.54-1.83-4.67-4.12-4.77-3.57-.13-5.46,4.34-3.34,7.37-.51.15-1,.39-1.43.69.02-.25.04-.49.03-.75-.21-4.34-5.12-6.78-7.96-3.93-.92.93-1.4,2.27-1.34,3.68.15,3.17,3.04,5.81,6.08,5.01,0,.01,1.1,1.18,1.36,2.66,0,.63-.24,1.26-.67,1.73-.28.3-.26.77.04,1.06.31.28.78.26,1.06-.04.19-.21.36-.43.5-.67,1.43,1.73,3.66,1.82,5.85,1.4,1.21-.24,1.37-1.21.87-1.96-.24-.39-.5-.8-.81-1.21.86-.25,1.77-.61,2.99-1.42,1.2-.81,1.21-1,1.69-1.42.54-.32.46-1.14-.14-1.35Zm-11.05-2.82c-.25-.81-.91-1.4-1.7-1.4-1,0-1.82.95-1.82,2.11,0,.89.48,1.64,1.15,1.95-1.96.29-3.79-1.52-3.9-3.7-.09-1.96,1.26-3.42,2.92-3.33,1.96.08,3.62,2.13,3.35,4.37Zm6.21-6.53c1.49.06,2.69,1.52,2.68,3.25-.01,1.47-.91,2.69-2.11,2.93-.04-.02-.07-.04-.11-.05-.02-.02-.05-.02-.08-.04,1.29-.96.74-3.39-.79-3.39-1.09,0-1.86,1.39-1.36,2.64-1.85-2.01-.63-5.43,1.77-5.34Zm-2.69,15.34c-.97-.18-1.81-.7-2.17-1.63.62.18,1.33.19,1.63.21,1.12.71,2.18,1.12,2.83,1.38-.69.12-1.51.2-2.29.04Zm-1.01-2.95c-.6-.05-1.21-.16-1.45-.66-.43-.79-.18-2.73,1.06-3.78,1.04-.87,2.66-1.17,4.15-.34,1.09.65,2.01,1.86,3.24,2.64-2.05,1.6-4.04,2.44-7,2.14Z"></path><path class="cls-1" d="m48.62,20.58c.32,0,.62-.21.72-.53.44-1.42,1.5-1.49,1.79-1.04.22.35.69.45,1.04.22.35-.22.45-.69.22-1.04-.96-1.5-3.64-1.31-4.48,1.41-.15.48.21.97.72.97Z"></path><path class="cls-1" d="m37.63,22.86h.01c.41,0,.75-.35.74-.76,0-.57.31-1.15.81-1.45.49-.29,1.15-.31,1.65-.03.36.2.82.07,1.02-.29.2-.36.07-.82-.29-1.02-.97-.54-2.2-.51-3.15.06-.95.57-1.55,1.65-1.53,2.75,0,.41.34.74.75.74Z"></path><path class="cls-1" d="m59.22,9.07l-1.13,2.51c-.17.38-.61.55-.99.38-.38-.17-.55-.62-.38-.99l1.13-2.51c.17-.38.62-.55.99-.38.38.17.55.62.38.99Z"></path><path class="cls-1" d="m66.04,9.53l-5.9,4.51c-.33.25-.8.19-1.05-.14-.26-.33-.19-.8.14-1.05l5.89-4.51c.33-.25.8-.19,1.06.14.25.33.18.8-.14,1.05Z"></path><path class="cls-1" d="m65.4,16.41l-3.33.91c-.4.11-.81-.12-.92-.53-.11-.4.13-.81.53-.92l3.32-.9c.4-.11.81.12.92.52.11.4-.12.81-.52.92Z"></path></g></svg> 