<svg id="Layer_1" enable-background="new 0 0 76 76" viewBox="0 0 76 76" xmlns="http://www.w3.org/2000/svg"><g id="Cute_Chick"><path d="m60.7297478 36.7948112c.2745476-.7804031.60783-2.146286.7387695-2.8999023.3514786.4209213 1.0357895.33321 1.2612305-.1801758.6972656-1.5854492.7626953-3.4282207.1757813-5.0634747-.5988083-1.6095142-1.4096451-2.2093792-1.6308594-2.5019531.377491-.4375496 1.2786751-.9310436 2.1845703-.9985352.5692253-.0430603.8836937-.682415.570797-1.1601563-.5727501-.8706055-1.5263634-1.4941406-2.5410118-1.6655273-.831543-.1523438-1.5117188.0205078-2.1425781.2666016-.7763672-3.6425781-2.9873047-7.0024414-6.0444336-9.1245117-2.6799583-1.8654976-5.5534363-2.5161133-8.7928467-2.5161133-.2072754-.1448975-.4192505-.2792969-.6372681-.3881836.5940552-.1727295 1.2195435-.234375 1.8353882-.1738281.7117043.0623713 1.0998039-.785738.6040039-1.2783203-1.4086304-1.3984375-3.4609375-2.0605469-5.4113159-1.7926025-1.7642441.2397323-2.7717514 1.15273-3.5784302 1.7174072.027832-.925293.296875-1.84375.7895508-2.6264648.4183578-.6640625-.3426247-1.4433303-1.0161133-1.0454102-1.1733398.6928711-2.5039063 1.4780273-3.4257813 2.7080078-.6962891.9301758-1.1567383 2.2666016-.9267578 3.5297852-2.5671921.2452459-4.3582363 2.531209-4.4492188 4.9169922-.0211029.5686932.5738487.9498558 1.0776367.7026367.1381836-.0672607.2786255-.1328125.4181519-.1993408-.8705444.9394531-1.6538086 1.9632568-2.34198 3.0640869-3.5209446 5.6433544-3.8923569 12.733366-.4038086 18.529295-2.008667.7658691-3.2136841 1.6245117-3.6628418 2.5966797-.2110596-.1323242-.4344482-.2532959-.6828613-.3525391-2.0540218-.8419228-1.8784771-.7611885-2.0691528-.8205566-.7952251-.5685234-1.688591-.5433044-2.5846558-.1721191-2.7197275 1.1259766-6.234376 6.0341797-8.7456064 12.2138672-2.6773071 6.5949707-3.9518433 14.151371-1.3936157 16.1816444.1343994.2763672.3658447.5361328.6900024.7719727 2.4327164 1.8165665 3.3099337 1.7246017 5.1279297.8964844 1.7477751-.7600708 3.4471159-2.3523331 4.5273447-3.90625 2.0729084-2.8459778 3.7253666-6.3409042 4.9327393-9.6345253.1380806 7.6449318.0432205 4.6623306.0906982 7.6799355.0499096 2.2541046 3.036377 3.3462753 5.1083984 4.1679688 2.0732422.8413086 4.3925781 1.46875 6.8759766 1.862793 5.8546906 1.0758209 15.0546837 1.2493057 29.0053673-3.0703125.8318863-.2550888 1.5987167-.6618881 2.4541016-1.1025391 1.9437485-1.0057983 2.7673569-1.3130646 2.6855469-3.5180702-.1857224-7.6712914.0224228-6.4756966-.0732422-12.4624023-.0821686-4.9951706.0662613-3.5234299.1518555-7.4394531.0017929-.1001434.0032578-.1821747.0014648-.0820313.1168746-3.764458-4.4407807-4.870148-8.7529259-5.6308597zm-2.0742188 15.5512696c-.6427803-3.1051788-1.1775208-2.7977333-2.5170898-4.4047852-.5872993-.7018776-1.3085861-1.7843704-1.5478516-2.6669922-.5113487-1.6762047-.2520523-3.9783134 1.1168213-5.1079102.9860115-.8026314 2.3799171-1.1993942 3.5512085-1.1311035 3.6819992.1873436 5.8622246 4.9707069 4.7665367 8.7492676-.1440392-.4648438-.3359337-.9208984-.5747032-1.3632813-.1489258-.2905273-.465332-.4536133-.7910156-.3979492-.3222656.0537109-.5727539.3100586-.6186523.6333008-.3422852 2.3857422-1.3310547 4.6411133-2.8637695 6.527832-.3065301.384945-.2595178.4318353-.5214845-.8383788zm-31.8696289-2.6298828c-.678215-1.6402397-.7326241-3.6504211-.1464844-5.2514648.9528465-2.6747856 3.0943298-2.853775 3.1943359-2.9194336 1.9766712-.4346352 4.2421875.4810295 5.2099609 2.0703125.9557304 1.5535088.7055092 5.2867126-2.121582 7.1708984-.077713-.6569061-.1534653-1.2776718-.2246094-1.8637695-.0981903-.8033638-1.2251282-.8975716-1.4614258-.1298828-.6449776 2.0994644-2.0869312 3.8468781-3.8476563 4.9179688.1303713-1.3432618-.073242-2.720215-.6025389-3.994629zm41.0566368-8.3715821c-.0029297.0185547-.0048828.0366211-.0068359.0551758-.0624771.7497177-1.6780853 1.5361557-2.3670654 1.8326416-.4828568-1.7424164-1.4833069-3.4604683-2.890255-4.5308838 4.0439415.9506836 5.239254 2.0825196 5.2641563 2.6430664zm-39.123043-20.4643535c1.1137085-1.7824707 2.50177-3.3392334 4.1157837-4.6462402.7143555.0874023 1.4436646.4416504 1.7098999 1.0769043.1606445.3818359.6005859.5610352.9819336.4018555.3818359-.1601563.5620117-.6000977.4018555-.9819336-.5751343-1.3713379-2.0316772-1.9777832-3.3133545-2.0129395-.8376865-.0368214-1.725275.204793-2.5050049.5153809.286293-.6511965.7731037-1.2260609 1.2260742-1.5727539.6064453-.4604492 1.4746094-.6635742 2.3876953-.5532227.5304871.0574884 1.0002136-.206336.5656738-1.4992676-.2914429-.8862305.0655518-1.9471436.5847168-2.6369629.2983398-.4008789.6630859-.7495117 1.0639648-1.0654297-.0977173.5146484-.1357422 1.0410156-.1121216 1.5646973.0364113.9095945.2820244 1.6915693.2595825 1.5915527.2455482.73944 1.2753487.636714 1.4467773-.0854492.3546982-.616148.6091042-.6370354 1.0541992-1.0024414 1.0218735-.8338146 2.0625992-1.2521696 3.3543701-1.1999512.5460205.0224609 1.0910645.128418 1.6036377.3210449-.9814453.2705078-1.9003906.7709961-2.6469727 1.465332-.2734375.2543945-.3183594.6713867-.1049805.9775391.2071342.2983093.6154442.4191475.9614258.2426758 1.1101151-.5705147 2.9685631 1.0065508 3.34375 2.1899414.2695313.8515625.1293945 1.8149414-.3173828 2.5927734-.9540749-3.4844379-4.4638214-4.1929951-6.0751953-2.3056641-.269043.3149414-.2319336.7880859.0834961 1.0571289.3144531.2685547.7875977.2314453 1.0571289-.0834961.702282-.8215933 2.2854118-.6614752 3.1264648.8305664.3242188.574707.5112305 1.3066406.5556641 2.1748047.0294418.5835705.6891403.9118767 1.1723633.5810547 1.9222221-1.3152065 2.728447-4.1640873 1.3339844-6.3011475 2.5004272.1959229 4.5645752.8973389 6.4106445 2.1824951 2.9873047 2.0732422 5.074707 5.4594727 5.5849609 9.059082.0327148.230957.1713867.434082.375.5483398.4358635.2460861.7949257-.0465717.9458008-.0878906.8767014-.386692 1.5530777-.6791286 2.5019531-.2128906-.7990189.3240414-1.8931999 1.0400867-2.0927734 1.875-.2005577.9058571.6978378 1.5424614.9458008 1.8691406.9118652 1.146616 1.2482109 2.6117783 1.0390625 4.0097656-.0755119-.1013203-.5452042-.73559-.6162109-.8251953-.2558594-.3198242-.7207031-.3745117-1.0444336-.1254883-.3237305.2504883-.387207.7138672-.1425781 1.0419922.0116386.1000118.4995651.1972332-.2734375 3.2299786-.0621948.1815796-.1596298.9524155-.8766479 2.4504395-.1008263.0108604-.9221725.0071526-1.9206543.3311768-1.0990791.3599396-2.1341324.9881554-2.8460083 1.9056396-1.1406822 1.4761276-1.1383667 3.2283134-1.1713867 3.3303223-.5174561.2132568-1.0690308.4055176-1.6726074.5566406-.4018555.1000977-.6464844.5073242-.5458984.9091797.0991516.3977547.502758.6466942.9091797.5458984.4825439-.1203613.9386597-.2653809 1.3773193-.4237061.0157509.1017799.1024933.5360947.1929321.8580322-1.5413818.1300049-3.2930298.3798828-4.9372559.5092773.4246368-.6107483-.1746407-1.3597488-.8449097-1.1315918-3.2191772 1.0872803-6.8877563.9790039-10.3776855-.277832-.5231476-3.2840424-3.9475899-5.0689049-6.9852295-4.6278076-4.6587276-5.136894-5.1318778-12.9153784-1.2503661-19.1363504zm-.7929688 19.0151348c.1403809.1871338.2781982.3754883.4324341.5617676-1.2342777.5489082-2.185173 1.504509-2.7858276 2.6932373-.2893391-.1877594-.6425934-.4513054-.810791-.7528076-.0037842-.0068359-.0053711-.0119629-.0087891-.0184326-.079874-.1519356-.0547485-.1730423-.0804443-.2762451-.0000001-.4936524.8789062-1.348877 3.2534179-2.2075196zm-9.9482422 15.8647461c-1.333683 3.2799873-3.9184742 8.2692833-6.6201792 10.540287-.2593384-2.8549843.7293091-7.5535927 2.6299438-12.2546425 1.8998413-4.6728516 4.4520884-8.6958008 6.6209726-10.5311279-.0143565.1003837.598385 4.3077545-2.6307372 12.2454834zm-.9448242 9.3862343c-1.0790291 1.4682922-2.4271393 2.7618027-3.9794931 3.4404297-1.0831566.4936218-1.4530239.5940933-2.4980469-.0185547 3.6868248-1.4532013 7.3103456-8.5499916 8.8120127-12.2426796 1.5367489-3.7795715 3.4868946-10.3155937 2.5351563-14.1708984 2.9895229 1.2298698 2.0413074 5.8857651 1.2504883 9.2148438-1.0567857 4.3832434-3.3437406 9.9645423-6.1201173 13.7768592zm11.4560547 1.5195312c-1.3803711-.5473633-3.690918-1.4628906-3.7163086-2.625-.0126953-.7636757-.0131836-1.5288124-.0136719-2.2939491-.0012703-2.8664207-.1983356-9.8195267-.1088867-10.2050781.1620789-.697094.333477-1.5541878.4321289-2.1713867.0608273.2155075.1976414.6303444.3173828.9199219.6049805 1.456543.6918945 3.0703125.2451172 4.5454102-.1819706.6015701.4165516 1.1411438.9902344.9160156 1.8773193-.7315674 3.5334473-2.0783691 4.6976318-3.7749023v13.5459023c0 .5300293-.2399902 1.6298828.0100098 2.1000977.012207.0227051.0360107.0427246.0501099.0651855-.8476563-.2512207-1.6715088-.5252686-2.4476929-.8400879zm10.6622925 2.4024658c.1549721-.3420715.1750679 1.2724686-.4186401-21.0255165-.0042114-.189209-.0203857-.3837891-.0441895-.576416 3.6423912.2572441 6.95327.1852303 7.7341919.1862793v21.5468788c-2.695549.1128159-4.9994888.0545426-7.2713623-.1312256zm16.2692261-.9715576c.1821976-.5446472.1380844.5271149.1414795-18.5522499.9319534.9757347 1.1595802.8588257 1.6237793 3.1052246.213501 1.0294418.3555717 2.1091003 1.4109497 2.3168945.6829376.1306038 1.3139725-.2988358 1.7477417-.8413086 1.0726318-1.3205566 1.9035034-2.8079834 2.4681396-4.3918457v16.2263222c-2.33321.874527-4.1855392 1.4796906-7.3920898 2.1369629z"/><path d="m38.6740837 27.0980358c-.9194336.9257813-1.4082031 2.2666016-1.340332 3.6787109.1505699 3.1636906 3.0359764 5.8115559 6.0740967 5.0061016.0009956.0122757 1.1020508 1.177372 1.3651733 2.6635742-.0079956.6318359-.239563 1.2601318-.6697388 1.723877-.2817383.3037109-.2641602.7783203.0395508 1.0600586.3041611.281559.7778549.2640762 1.0600586-.0395508.1886597-.2033691.3522339-.4287109.4943848-.666626 1.4294701 1.7295456 3.665535 1.8154335 5.8527832 1.4039307 1.2113953-.241745 1.3733368-1.211113.8671875-1.9594727-.2333984-.3918457-.5015869-.8022461-.8057861-1.2167969.8587227-.2498665 1.7706413-.6092682 2.9918213-1.4179688 1.1977921-.8115196 1.2022896-1.0026398 1.6860352-1.418457.5441933-.3259315.4601212-1.1425056-.1401367-1.3510742-.993576-.3453255-1.7055016-1.1593933-2.8294067-2.1401367 1.2860718-.7456036 2.1554565-2.2292461 2.1731567-3.9433575 0-.0014648 0-.0029297 0-.0043945.012207-2.5292969-1.8354492-4.6665039-4.1181641-4.7631836-3.5758667-.1245651-5.4620361 4.3367996-3.3457642 7.3725586-.5128174.1529541-.9967041.3842773-1.4338989.6865234.0227661-.2458496.0490112-.491333.0369873-.7436523-.207737-4.3485107-5.1175118-6.7877635-7.9580079-3.930664zm9.9458008 13.4575176c-.972168-.1808548-1.8066864-.7066956-2.1704102-1.6337891.6209755.1832771 1.3314209.1931381 1.6268311.208252 1.1249695.7133865 2.1841393 1.1244965 2.8343506 1.3862305-.6919556.1145019-1.5137329.1928711-2.2907715.0393066zm2.6914062-15.3432598c1.4863281.0629883 2.6889648 1.5229492 2.6816406 3.2548828-.015625 1.4692383-.9091797 2.6860352-2.1123047 2.9272461-.0356445-.0185547-.0712891-.0371094-.1064453-.0541992-.0271606-.0134277-.0570068-.020752-.0844116-.0334473 1.2858887-.9631004.7406807-3.3916016-.791626-3.3916016-1.0911179 0-1.8610573 1.3853512-1.3543091 2.6379395-1.8582801-2.0138759-.6384467-5.428955 1.7674561-5.3408203zm.0548706 7.6093731c1.0983315.6512337 2.0172386 1.8656273 3.2390747 2.6430664-2.0490532 1.5965271-4.0387192 2.435955-6.9985352 2.1411133-.5956841-.0512581-1.2066345-.1601601-1.4516602-.6655273-.4217873-.7912483-.1766434-2.7251205 1.0678711-3.78125 1.0389062-.8652268 2.6590043-1.1612149 4.1432496-.3374024zm-6.2621459-1.0778789c-.25177-.8127441-.9158936-1.3974609-1.7036743-1.3974609-1.0032959 0-1.8166504.9428711-1.8166504 2.1059551 0 .8876953.4752808 1.6435547 1.145813 1.9533691-1.9594879.2886047-3.7935524-1.5193977-3.8977051-3.7006817-.0937309-1.9644985 1.2569618-3.4189148 2.9150391-3.3349609 1.9650077.0811767 3.6275405 2.1382618 3.3571777 4.3737793z"/><path d="m48.6179314 20.5838757c.3203125 0 .6166992-.2060547.7163086-.527832.4407349-1.4225368 1.4955177-1.4926682 1.7875977-1.0410156.2241211.3486328.6870117.4477539 1.0366211.2241211.3481445-.2241211.4487305-.6879883.2241211-1.0366211-.9631081-1.4964066-3.6373558-1.3119755-4.480957 1.4091797-.1499139.4837798.2128295.9721679.7163085.9721679z"/><path d="m37.6262321 22.8636608h.0107422c.4145508-.0063477.7451172-.3466797.7392578-.7607422-.0083008-.5712891.3149414-1.1523438.8051758-1.4458008.4887695-.2939453 1.1538086-.3056641 1.6533203-.0297852.3603516.199707.8188477.0693359 1.019043-.293457.2006836-.3623047.0693359-.8188477-.293457-1.019043-.9672852-.5351563-2.2045898-.512207-3.1508789.0561523-.9472656.5678711-1.5493164 1.6489258-1.5332031 2.753418.0058593.4106446.3408203.7392579.7499999.7392579z"/><path d="m58.8449821 8.0863171c-.3769531-.1694336-.8217773-.0014648-.9916992.3764648l-1.1289063 2.5073242c-.1699219.3779297-.0014648.8217773.3759766.9921875.3765678.1689959.820919.0025415.9921875-.3759766l1.1289063-2.5083008c.1699219-.3779296.0014648-.8217773-.3764649-.9916991z"/><path d="m66.176033 8.4818249c-.2514648-.3286133-.7236328-.3916016-1.0512695-.1401367l-5.8994102 4.5107422c-.3291016.2514648-.3916016.722168-.1401367 1.0512695.2526627.3304701.7242775.3906736 1.0512695.1401367l5.8994102-4.5107422c.3291016-.2514648.3916016-.722168.1401367-1.0512695z"/><path d="m65.0012283 14.9691296-3.3247032.9077148c-.3994141.109375-.6347656.5214844-.5258789.9213867.1098671.4012775.5236206.6340942.9213867.5258789l3.3247032-.9077148c.3994141-.109375.6347656-.5214844.5258789-.9213867-.1093749-.3999024-.520996-.6357422-.9213867-.5258789z"/></g></svg>