<svg id="Layer_1" enable-background="new 0 0 76 76" viewBox="0 0 76 76" xmlns="http://www.w3.org/2000/svg"><g id="Dog_Wagging"><path d="m12.5006876 46.1920815c-.9875069 4.2658691-.8711872 7.2806091-.9248047 8.2490234.0020266 5.1116867.1742783 5.8225098.4604492 7.9521484.159668 1.1835938.4013672 2.9726601 1.8725586 3.545414 1.4375105.5572891 3.275115-.490654 3.6899405-1.746582.3191414-.9687996-.1903248-2.0203362-1.1577148-2.1855507.320343-3.0516739.4513474-1.8631859.8303223-7.2006836.2728271.0395508.5461426.0817871.8183594.1159668.0005741.1003227.0502834 8.8098412.0471191 8.2556152-.0136719.7495117-.0317383 1.776371.9291992 2.4731483 2.5403042 1.8421555 5.8353939-1.982811 3.6494141-3.4218788-.1279297-.0839844-.2729492-.1445313-.4248047-.1816406.091423-.9191017.4796104-5.102459.6374512-6.8034668.6177902.0055695 1.2042809.022934 2.8048096-.0654297.7107334 8.4738464.6156197 7.0171127.6334229 7.6740723.0161133.6362305.034668 1.357914.3579102 1.9384804.5026588.9035797 1.5246029 1.4941406 2.5893555 1.4941406 1.1948242 0 2.3691406-.706543 3.0083008-1.8168945.8760605-1.5216484.1283073-2.8755302-.9545898-3.0839882-.0996094-.019043-.1987305-.0268555-.3022461-.0239258.1960011-1.8007469-.0348034-3.7650566.3413086-7.0129395.3549805-.1120605.6943359-.2363281 1.0117188-.3811035.2429657 2.9119911.6734505 8.1982613.6982422 8.5058594.1162148 1.537159.3980637 2.7830849 1.9106445 3.2282753 1.5256767.446373 3.9970703-.9562683 3.9970703-2.6779823 0 0 0 0 0-.0002441v-.0002441c0-.59375-.3182373-1.140625-.8013916-1.4509277-.1003685-.0647049-.2514267-.2217789-.7010498-.2443848.0127945-.6397209.1073837-1.6779785.1708984-2.3164063.2979813-2.9744263.5169907-10.2523193.5239258-12.1455078-.0074501-.1157303.0758286-1.3197174-.4221191-3.810791.5004883-.3869629.8566895-.942627 1.0734863-1.6916504.0004883-.0009766.0004883-.0019531.0009766-.0029297.5583992-1.9533119-.5897064-3.7898865-2.378418-3.9472656-.3490601-2.0840988-.437603-7.7090569.3564453-9.128418.1975899-.3525486.2638474-.2965164.427002-.2497559.274292.0788574.5202637.2478027.9001465.5197754 1.1348152.8063736 2.4129372 1.3377914 3.6118164 1.9467773 4.0525436 2.0640106 8.2566414 3.4969597 14.0668945 3.5390625 2.0825195-.0053711 4.1169434-.2666016 6.0749512-.7597656-1.2951355 2.9361267-1.7450371 3.9423866-2.3225098 5.2963867-1.2976341-.4259186-2.8560905.1557388-3.5166016 1.3540039-.7866211 1.4257813-.2436523 3.3896484 1.1870117 4.2890625 1.0532188.6595421 2.97089.6795235 4.1435547-.0727539.2248535.4282227.5512695.7883301.9262695 1.0895996.9354248 1.7531738.9547119 3.9509277.0083008 5.7043457-.5248718.9720764-1.9112167 2.6718483-.9716797 4.3574219.6393661 1.1451645 2.2918816 1.5519791 3.5366211.8691406.9633789-.5288086 1.6474609-1.6166992 1.8295898-2.9106445.2836151-2.0149269-.605751-3.9742584-.2910156-5.6738281.0756836-.4072266-.1933594-.7988281-.6005859-.8740234-.4116211-.078125-.7983398.1933594-.8740234.6005859-.3836288 2.070015.5275574 3.9797211.2802734 5.7382813-.1166992.8276367-.5151367 1.5019531-1.0654297 1.8041992-.5219727.2861328-1.2666016.144043-1.5053711-.284668-.465416-.8331375.5079689-2.0365562.9819336-2.9140625.9346924-1.7324219 1.1234131-3.8164063.5839844-5.6955566 2.3870239.0923157 3.7562027-2.1463699 3.1162109-4.0007324-.3725586-1.0795898-1.1162109-1.3417969-1.6591797-1.5336914-.0039063-.0014648-.0078125-.0029297-.0117188-.0039063.3183594-.5849609.5224609-1.1606445.6845703-1.6757813.8148346-2.6590652 1.9760895-5.9741249 2.2776489-8.7158203 1.5494385-1.6313477 2.2460938-3.9880371 2.0519409-7.0332031-.2903366-3.9993553-.6994705-9.1028004-4.3422852-10.904541-2.5634193-1.2672606-5.330864-.5140553-7.8273926.9284668-2.5104637 1.4510031-2.4322052 1.6041603-7.3961182 2.9138184-2.8009338.7387295-6.7443962 1.6252003-9.6392822 1.9057617.1610107-1.0581055.0163574-2.1921387-.4404297-3.1984863-1.7743492-3.8651171-5.1436577-4.7203798-6.7744141-3.6689453-.84375.5422363-1.2940674 1.4963379-1.5268555 2.1999512-.4266624-.0545788-.7365036-.0448685-1.0075684-.0036621.3582535-2.2025833.9645805-2.5608807.5500488-2.7736816-.2336426-.1203613-.5875244.1469727-.7678223.2668457-.6168461.4135389-1.2855511.9956856-1.9812012 1.8149414-.0289841-.4447718-.0516052-.4805965-.0454102-.8461914.0136719-.8188477-.0019531-1.3388672-.3291016-1.6616211-.6369839-.6303253-1.4762669.0161982-2.0083008.9296875-.2779274.4922333-1.1397285 1.6261015-1.6630859 3.6923828-.4290371 1.7004204-.562191 4.3167191.1308594 5.840332.0107422.0239258.0229492.046875.0361328.0688477.0196362.1028843 2.0980587 7.068243 1.9750977 15.9892578-1.0710449.5349121-1.8046875 1.668457-1.8046875 2.8945313.0036621.6474609.192627 1.2280273.559082 1.7402344-3.0875511-.0257111-6.2325649.4237976-9.2646484 1.222168-.996048.2621193-.8439903.8086166-1.5126944-.9057617-.9339914-2.4082298-1.6236277-4.6005936-1.2998047-7.8217773.0634766-.6337891.1811523-1.8134766-.7114258-2.4609375-1.6244354-1.1743698-2.5867682.5551853-3.0576172 2.6845703l-.0517578.2290039c-.9780462 4.0499188.235058 8.8054043 1.9838869 12.1230466zm52.932128-9.4238282c-.4878616 1.5478554-.7112122 2.5565987-1.4140625 3.5131836-.2466049.3352623-.1724777.8054276.1611328 1.0498047.3701172.2705078.7392578.4008789 1.0356445.5058594.4521484.159668.6044922.2133789.7407227.6083984.2070313.6000977-.0566406 1.3657227-.5966797 1.7407227-.9654007.6595764-2.5354233.2811508-2.8583984-1.8432617 0 0 0-.0004883 0-.0009766.0224609-.4135742-.2939453-.7670898-.7075195-.7900391-.4243164-.0209961-.7670898.293457-.7905273.7070313-.0548019 1.009964-2.1330261 1.188343-2.9301758.6894531-.7524414-.4731445-1.0722656-1.5664063-.6708984-2.2939453.3827095-.6954803 1.4970665-.959259 2.0893555-.4580078.3832664.3245392.9782677.1889267 1.1767578-.2822266 1.0258369-2.4483414 3.5144119-7.9398327 4.2177734-9.7177734.9897614-.0148258 1.480484-.1782246 1.5947266-.203125.2335815-.0505371.4691162-.0922852.6977539-.1635742-.1027376.455019.1038817 1.0746078-1.7456056 6.9384765zm-30.3237305-24.5371093c.1582031-.1015625.3701172-.1582031.625-.1679688 1.8310547-.0522461 3.2807617 1.6894531 3.9731445 3.1987305.3862305.8510742.4770508 1.8222656.2636719 2.6813965-.3140678.013422-.6304283.015583-.9433594.0134277.2586365-.6650581.0958023-1.4233418-.3353271-1.921875-.5269394-.6095858-1.7211952-1.0412893-2.0114746-.2490234-.6157913-.8678951-1.5226364-1.7316456-2.4779053-2.1889648.2128906-.6250001.5429687-1.1323243.90625-1.3657227zm-1.0251465 3.0249023c1.0650177.7358036 2.1178284 2.2325745 2.354248 3.5595703.2716751 1.4448128-.2392654 2.7447281-1.0957031 3.4160156-1.1652298.9124546-2.5884628.9411469-3.8183594-1.1176758-.8219681-1.3997517-1.4247093-3.0442848-.9941406-4.5957031.1814156-.7135954.6268387-1.6765375 1.3476563-1.84375.4194526-.1269397 1.344738-.0132961 2.2062988.581543zm-7.1335449 4.3974609c-.2490234-.6572266-.2768555-1.484375-.2822266-2.2177734-.0142174-1.8353243.5437164-3.7521782 1.3740234-5.0878906.0979424 1.6649981.3310051 3.2628479.5974121 4.4523926.4065971 2.1359844.484005 3.1887684 1.5939941 5.0778809 2.7963753 4.69133 7.9104462 1.8745899 7.7773438-2.4511719 4.2742119.2173328 9.8370552-1.0359306 14.0081787-2.1638184 1.0180092-.2753811 3.4059105-.9522305 4.3809814-1.3713379-.3347168 1.9931641-.0036621 4.0837402 1.1069336 5.7036133 1.3552246 1.9692383 3.6782227 3.2175293 6.0681152 3.3376465 2.0186157.1100826 4.0510101-.635107 5.6484375-1.640625.0988693 1.9504623-.167778 3.0328808-.5401001 3.9523926-.1699219-.0112305-.3442383.0256348-.4918823.1347656-1.4360352 1.0561523-3.3989258 1.4350586-5.1259766.9902344-.4038086-.1030273-.8100586.137207-.9135742.5385742s.1376953.8100586.5385742.9135742c.2233887.0576172.4506836.0927734.6774902.1291504-.1706963.4303818-.4049835.9657822-.6600342 1.5515137-2.2767982.7022476-4.6575165 1.0366211-6.9212646 1.0366211-6.1894035 0-10.0137062-1.716507-14.9251709-4.1625977-2.0384102-1.0128784-2.1697235-1.4656029-3.1053467-1.7619629-.3379745-.1369362-1.0864449-.3154697-2.0949707-1.0554199-.3339844-.2441406-.8037109-.1728516-1.0483398.1616211-.2446289.3339844-.1723633.8032227.1616211 1.0483398.2890625.2119141.6003418.3857422.9118652.5585938-.7884598 1.1633911-.8799896 3.349966-.9338379 4.7685547.0017586.4133263-.2786636 3.145977.4589844 6.6445313-.1090126.0143318-.2181816.0283432-.3032227.0429688-1.8076172.2988281-3.715332.050293-5.3686523-.6962891-.12854-.0583496-.265625-.1069336-.4033203-.1542969.3149415-9.7249566-1.8465098-17.8487359-2.186035-18.2797853zm.5844726 18.987793c.3222771.4591713.8744373.6851692 2.3393555 1.1813965 2.209137.7490768 5.2286758.661171 6.4975586.1984863.0009766-.0004883.001709-.0012207.0026855-.0014648.1000023-.0593224.5395012-.174427.8308105-.6391602.6057396.7897606.2444038 2.2561035-.5644531 2.6352539-1.8609009.8772812-4.3614311.497982-6.3320313-.2495117-1.321043-.4973602-2.9455795-1.0461884-2.953125-2.3891602.0000001-.2534179.0649415-.5058593.1791993-.7358398zm-15.5600576-4.2202148c.0324183-.1456375.4675674-2.2694893.7709961-2.0512695.4801331.3489685-.5208941 2.4127197.4755859 6.5927734.3550215 1.4909363.7644596 2.371666 1.019043 3.0209961.7537146 1.9316025 1.2859535 2.5715218 2.9951162 1.9169922.1132813-.043457.2167969-.0854492.2958984-.105957 3.2998352-.868206 6.8032875-1.3252029 10.2231445-1.1303711.1809082.0114746.3381348-.0483398.4698486-.140625 1.3507423.6520576 2.9061413 1.1647034 4.4251709 1.3835449-.29142.8946877-.432251 1.8066521-.105957 2.6931152.2548828.6953125.7900391 1.2446289 1.4311523 1.4697266.7773209.273632 1.6670418.0397263 2.1591797-.5732422.2592773-.3232422.2075195-.7954102-.1152344-1.0546875-.324707-.2592773-.7954102-.2080078-1.0546875.1152344-.0913086.1147461-.3149414.1586914-.4921875.0976563-.2197266-.0771484-.4189453-.2958984-.5205078-.5722656-.2404251-.6544876.0211334-1.4357948.2487793-2.0678711.4656944-.0054321.4121208-.0157547.6057129-.0249023.5674324-.0478592 1.3536301-.221653 1.5876465-.2895508.2357101 1.2650719.3272133 2.3104668.322998 3.1572266-.0086403 2.3223915-.2242889 9.0319519-.5332031 12.1748047-.065464.656353-.2853661 2.959053-.0949707 3.5947266.1907043.6247139.9868546.707737 1.3330078.1896973.0488281.0241699.1025391.1125488.1027832.2050781-.0002441.1547852-.0800781.3337402-.2202148.4851074-.2679062.2967987-1.0894356.7935905-1.5810547.8012733-.9701157-.0144348-1.0369492-.9721794-1.1103516-1.9492226-.0148544-.1844559-.7230759-8.9524574-.7678223-9.2077637 1.0814209-.7770996 1.8930664-1.7873535 2.2976074-2.904541.1411133-.3896484-.0600586-.8193359-.449707-.9604492-.3901367-.140625-.8198242.0600586-.9604492.449707-.3924561 1.0831299-1.3539429 2.1821632-3.0622559 2.9172363.0471191-.2443848.0839844-.4887695.1413574-.7321777.0952148-.4033203-.1547852-.8071289-.5581055-.9018555-.4057617-.0957031-.8066406.1552734-.9018555.5581055-.7010727 2.9761124-.6877384 6.6460762-.7084961 8.8955078-.006319.5961342-.3567333 1.9254837.1523438 2.6923828.3634567.5466385 1.2060127.3930626 1.3554688-.2436523.1481895.2150192.0010948.5724754-.128418.7983398-.8105106 1.4094505-2.4474144 1.3110466-2.9873047.3413124-.2025661-.3644867-.1444035-1.2469025-.1958008-1.8427773-.2099743-2.4603081-.6658421-7.8017578-1.0322266-12.0947266-.0356445-.4125977-.3950195-.7192383-.8110352-.6831055-.4125977.0351563-.71875.3979492-.6831055.8110352l.2919922 3.4233398c-2.7797852.1494141-5.4844971.027832-8.2150879-.3723145.0085449-.0961914.013916-.1921387.0227051-.2883301.0371094-.4125977-.2670898-.7768555-.6796875-.8144531-.4082031-.03125-.7768545.2670898-.8144522.6796875-.0737305.8173828-.1430664 1.6328125-.1918945 2.4506836-.242218 4.0551949-.7724743 5.2352371-.8642578 7.7016602-.0263319.7109642.8654795 1.0562553 1.3242178.5102539.0890141.4544334-1.0240974 1.2717247-1.7338858.998539-.6464844-.2519531-.8100586-1.4633827-.9291992-2.3481483-.4072819-2.9896202-.4457026-3.8601646-.4472656-7.8701172-.0014648-2.7177734.3178711-5.4291992.9492188-8.0600586.043457-.1806641.0180664-.3710938-.0712891-.534668-1.6815993-3.0749664-2.8816783-7.5698052-1.9790036-11.3066406z"/><path d="m16.3673859 37.1793861c.4082031-.0688477.6835938-.4555664.6152344-.8642578-.2641602-1.5683594-.2270508-3.2182617.1064453-4.7709961.0869141-.4052734-.1708984-.8041992-.5756836-.8911133-.4033203-.0849609-.8041983.1708984-.8911123.5756836-.3730469 1.7368164-.4140625 3.581543-.1191406 5.3354492.0680465.4018517.4468917.683178.8642568.6152344z"/><path d="m18.4225616 36.6745033c.3950195 0 .7255859-.3085938.7485352-.7075195.0522461-.9321289.3393555-1.8442383.8291016-2.6376953.2177734-.3525391.1083984-.8149414-.2441406-1.0322266-.3520508-.2172852-.8149414-.1083984-1.0322266.2441406-.6206055 1.0053711-.9838867 2.1606445-1.0507813 3.3408203-.0236492.4262162.3135376.7924805.7495117.7924805z"/><path d="m9.8835001 42.3038979c.3764648-.1728516.5410156-.6181641.3676758-.9946289-1.097168-2.3847656-1.5341797-5.0258789-1.2631836-7.637207.0424805-.4116211-.2568359-.7802734-.6689453-.8232422-.4072266-.0400391-.7807617.2568359-.8232422.6689453-.2983398 2.878418.1831055 5.7895508 1.3930664 8.418457.1740026.3782387.6210852.540081.9946289.3676758z"/><path d="m7.6618204 42.7072182c.3217773-.2607422.3720703-.7329102.1118164-1.0551758-.5415039-.6694336-.8984375-1.4736328-1.0322266-2.3256836-.0639648-.409668-.4443359-.6889648-.8569336-.6245117-.4091797.0639648-.6889648.4477539-.6245117.8569336.1743164 1.1118164.6401367 2.1621094 1.3466797 3.0366211.2596174.3202514.7300535.3730545 1.0551758.1118164z"/><path d="m53.4403839 23.9684486c.2050781.0947266.4509277.0717773.6569824-.0212402.7385254-.3327637.9041748-1.9387207-.1325684-1.9484863-.7714843-.0073242-1.3242187 1.6005859-.524414 1.9697265z"/><path d="m57.3406525 24.5451088c.0731201-.2087402.0465088-.4570313-.0943604-.6274414-.5518303-.6682053-1.7125244.4938583-1.1943359 1.0737305.3275757.3660202 1.0973663.0999088 1.2886963-.4462891z"/><path d="m53.8915558 26.6781654c.052002.2111816.3842773.3288574.5733643.3151855.6798401-.048542.9060669-1.062294.2705078-1.2207031-.4056969-.1014804-.9310418.5523491-.8438721.9055176z"/><path d="m34.4414825 20.8712807c.2120361-.6254883.0687256-1.3581543-.3630371-1.857666-.3540039-.4094238-1.380127-.9929199-1.8692627-.4836426-.5195313.5410156.0842285 1.9316406.4232178 2.4206543.589325.8501415 1.4820824.8864212 1.809082-.0793457z"/><path d="m59.574173 61.0665932c.0090332.3623047.0432129.7314453.1870117 1.0639648.4360123 1.0082321 1.5987015 1.0785217 2.3972168-.2089844.7442627-1.2006836 1.2689209-3.8347168-.4492188-4.4956055-2.0076904-.7724609-2.1662597 2.3935548-2.1350097 3.6406251z"/></g></svg>