<?xml version="1.0" encoding="UTF-8"?> <svg xmlns="http://www.w3.org/2000/svg" id="Layer_1" data-name="Layer 1" viewBox="0 0 76 76"><defs><style> .cls-1, .cls-2 { stroke-width: 0px; } .cls-2 { fill: #fff; } </style></defs><path class="cls-2" d="m7.77,41.65c.26.32.21.79-.11,1.05-.32.26-.79.21-1.05-.11-.71-.87-1.18-1.92-1.35-3.04-.06-.4.22-.79.62-.85.42-.07.8.21.86.62.14.85.49,1.66,1.03,2.33Z"></path><path class="cls-2" d="m10.25,41.31c.17.37.01.82-.37.99-.37.17-.82.01-.99-.37-1.21-2.63-1.69-5.54-1.39-8.42.04-.41.41-.71.82-.66.41.04.71.41.67.82-.27,2.61.16,5.25,1.26,7.64Z"></path><path class="cls-2" d="m15.5,36.56c-.29-1.75-.25-3.6.12-5.34.09-.4.49-.66.89-.57.41.09.67.49.58.89-.33,1.55-.37,3.2-.11,4.77.07.41-.2.8-.61.87-.42.06-.8-.22-.87-.62Z"></path><path class="cls-2" d="m17.67,35.88c.07-1.18.43-2.34,1.05-3.34.22-.36.68-.46,1.04-.25.35.22.46.68.24,1.04-.49.79-.78,1.7-.83,2.63-.02.4-.35.71-.75.71-.43,0-.77-.37-.75-.79Z"></path><path class="cls-2" d="m62.16,61.92c-.8,1.29-1.96,1.21-2.4.21-.14-.34-.18-.7-.19-1.07-.03-1.24.13-4.41,2.14-3.64,1.72.66,1.19,3.3.45,4.5Z"></path><path class="cls-2" d="m66.39,38.74c-.16.51-.37,1.09-.69,1.67t.02.01c.54.19,1.28.45,1.65,1.53.64,1.86-.72,4.1-3.11,4,.54,1.88.35,3.97-.59,5.7-.47.88-1.44,2.08-.98,2.91.24.43.99.57,1.51.29.55-.3.95-.98,1.06-1.81.25-1.76-.66-3.67-.28-5.74.08-.4.47-.67.88-.6.4.08.67.47.6.88-.32,1.7.57,3.66.29,5.67-.18,1.3-.87,2.38-1.83,2.91-1.25.69-2.9.28-3.54-.87-.94-1.68.45-3.38.97-4.35.95-1.76.93-3.95,0-5.71-.38-.3-.71-.66-.93-1.09-1.17.75-3.09.73-4.14.08-1.44-.9-1.98-2.87-1.19-4.29.66-1.2,2.22-1.78,3.52-1.36.57-1.35,1.02-2.36,2.32-5.29-1.96.49-3.99.75-6.08.76-5.81-.05-10.01-1.48-14.06-3.54-1.2-.61-2.48-1.14-3.62-1.95-.38-.27-.62-.44-.9-.52-.16-.05-.23-.1-.42.25-.8,1.42-.71,7.04-.36,9.13,1.48.13,2.52,1.41,2.52,2.95,0,.33-.04.66-.14,1-.22.75-.58,1.3-1.08,1.69.5,2.49.42,3.69.43,3.81,0,1.89-.23,9.17-.53,12.15-.06.63-.16,1.67-.17,2.31.45.03.6.18.7.25.49.31.8.85.8,1.45,0,1.72-2.47,3.12-3.99,2.68-1.52-.45-1.8-1.69-1.91-3.23-.03-.31-.46-5.6-.7-8.51-.32.15-.66.27-1.01.38-.38,3.25-.15,5.22-.34,7.02.1-.01.2,0,.3.02,1.08.21,1.83,1.56.95,3.08-.64,1.11-1.81,1.82-3.01,1.82-1.06,0-2.08-.59-2.59-1.49-.32-.58-.34-1.31-.35-1.94-.02-.66.07.8-.64-7.68-1.6.09-2.18.08-2.8.07-.16,1.7-.55,5.88-.64,6.8.15.04.3.1.43.18,2.18,1.44-1.11,5.27-3.65,3.43-.96-.7-.95-1.73-.93-2.48,0-.54-.05-8.15-.05-8.25-.27-.04-.55-.08-.82-.12-.38,5.34-.51,4.15-.83,7.2.97.17,1.48,1.22,1.16,2.19-.42,1.25-2.25,2.3-3.69,1.74-1.47-.57-1.71-2.36-1.87-3.54-.29-2.13-.46-2.84-.46-7.95.05-.97-.07-3.99.92-8.25-1.75-3.32-2.96-8.07-1.98-12.12l.05-.23c.47-2.13,1.43-3.86,3.06-2.69.89.65.77,1.83.71,2.46-.33,3.22.36,5.42,1.3,7.82.67,1.72.51,1.17,1.51.91,3.03-.8,6.18-1.25,9.26-1.22-.36-.51-.55-1.09-.55-1.74,0-1.23.73-2.36,1.8-2.9.12-8.92-1.96-15.88-1.97-15.99-.02-.02-.03-.04-.04-.06-.69-1.53-.56-4.14-.13-5.85.52-2.06,1.38-3.2,1.66-3.69.53-.91,1.37-1.56,2.01-.93.33.33.34.85.33,1.66-.01.37.02.41.04.85.7-.82,1.37-1.4,1.99-1.81.18-.12.53-.39.76-.27.42.21-.19.57-.55,2.77.27-.04.58-.05,1.01.01.23-.71.68-1.66,1.53-2.2,1.63-1.06,5-.2,6.77,3.67.46,1,.6,2.14.44,3.19,2.9-.28,6.84-1.16,9.64-1.9,4.97-1.31,4.89-1.47,7.4-2.92,2.49-1.44,5.26-2.19,7.83-.92,3.64,1.8,4.05,6.9,4.34,10.9.19,3.05-.51,5.4-2.05,7.03-.31,2.74-1.47,6.06-2.28,8.72Z"></path><g id="Dog_Wagging" data-name="Dog Wagging"><path class="cls-1" d="m68.67,30.02c1.54-1.63,2.24-3.98,2.05-7.03-.29-4-.7-9.1-4.34-10.9-2.57-1.27-5.34-.52-7.83.92-2.51,1.45-2.43,1.61-7.4,2.92-2.8.74-6.74,1.62-9.64,1.9.16-1.05.02-2.19-.44-3.19-1.77-3.87-5.14-4.73-6.77-3.67-.85.54-1.3,1.49-1.53,2.2-.43-.06-.74-.05-1.01-.01.36-2.2.97-2.56.55-2.77-.23-.12-.58.15-.76.27-.62.41-1.29.99-1.99,1.81-.02-.44-.05-.48-.04-.85.01-.81,0-1.33-.33-1.66-.64-.63-1.48.02-2.01.93-.28.49-1.14,1.63-1.66,3.69-.43,1.71-.56,4.32.13,5.85,0,.02.02.04.04.06.01.11,2.09,7.07,1.97,15.99-1.07.54-1.8,1.67-1.8,2.9,0,.65.19,1.23.55,1.74-3.08-.03-6.23.42-9.26,1.22-1,.26-.84.81-1.51-.91-.94-2.4-1.63-4.6-1.3-7.82.06-.63.18-1.81-.71-2.46-1.63-1.17-2.59.56-3.06,2.69l-.05.23c-.98,4.05.23,8.8,1.98,12.12-.99,4.26-.87,7.28-.92,8.25,0,5.11.17,5.82.46,7.95.16,1.18.4,2.97,1.87,3.54,1.44.56,3.27-.49,3.69-1.74.32-.97-.19-2.02-1.16-2.19.32-3.05.45-1.86.83-7.2.27.04.55.08.82.12,0,.1.05,7.71.05,8.25-.02.75-.03,1.78.93,2.48,2.54,1.84,5.83-1.99,3.65-3.43-.13-.08-.28-.14-.43-.18.09-.92.48-5.1.64-6.8.62.01,1.2.02,2.8-.07.71,8.48.62,7.02.64,7.68.01.63.03,1.36.35,1.94.51.9,1.53,1.49,2.59,1.49,1.2,0,2.37-.71,3.01-1.82.88-1.52.13-2.87-.95-3.08-.1-.02-.2-.03-.3-.02.19-1.8-.04-3.77.34-7.02.35-.11.69-.23,1.01-.38.24,2.91.67,8.2.7,8.51.11,1.54.39,2.78,1.91,3.23,1.52.44,3.99-.96,3.99-2.68,0-.6-.31-1.14-.8-1.45-.1-.07-.25-.22-.7-.25.01-.64.11-1.68.17-2.31.3-2.98.52-10.26.53-12.15,0-.12.07-1.32-.43-3.81.5-.39.86-.94,1.08-1.69.1-.34.14-.67.14-1,0-1.54-1.04-2.82-2.52-2.95-.35-2.09-.44-7.71.36-9.13.19-.35.26-.3.42-.25.28.08.52.25.9.52,1.14.81,2.42,1.34,3.62,1.95,4.05,2.06,8.25,3.49,14.06,3.54,2.09-.01,4.12-.27,6.08-.76-1.3,2.93-1.75,3.94-2.32,5.29-1.3-.42-2.86.16-3.52,1.36-.79,1.42-.25,3.39,1.19,4.29,1.05.65,2.97.67,4.14-.08.22.43.55.79.93,1.09.93,1.76.95,3.95,0,5.71-.52.97-1.91,2.67-.97,4.35.64,1.15,2.29,1.56,3.54.87.96-.53,1.65-1.61,1.83-2.91.28-2.01-.61-3.97-.29-5.67.07-.41-.2-.8-.6-.88-.41-.07-.8.2-.88.6-.38,2.07.53,3.98.28,5.74-.11.83-.51,1.51-1.06,1.81-.52.28-1.27.14-1.51-.29-.46-.83.51-2.03.98-2.91.94-1.73,1.13-3.82.59-5.7,2.39.1,3.75-2.14,3.11-4-.37-1.08-1.11-1.34-1.65-1.53t-.02-.01c.32-.58.53-1.16.69-1.67.81-2.66,1.97-5.98,2.28-8.72ZM35.11,12.23c.16-.1.37-.16.62-.17,1.84-.05,3.28,1.69,3.98,3.2.38.85.47,1.82.26,2.68-.31,0-.63.02-.94,0,.26-.66.09-1.42-.34-1.92-.52-.61-1.72-1.04-2.01-.25-.62-.87-1.52-1.73-2.48-2.19.22-.62.55-1.13.91-1.36Zm-4.58,4.28c.18-.71.63-1.67,1.35-1.84.42-.13,1.34-.01,2.2.58,1.07.74,2.12,2.23,2.36,3.56.27,1.45-.24,2.75-1.1,3.42-1.16.91-2.59.94-3.82-1.12-.82-1.4-1.42-3.04-.99-4.6Zm6.77,46.99c-.26.3-1.09.8-1.58.8-.97-.01-1.03-.97-1.11-1.94-.01-.19-.72-8.96-.77-9.21,1.09-.78,1.9-1.79,2.3-2.91.14-.39-.06-.82-.45-.96s-.82.06-.96.45c-.39,1.09-1.35,2.18-3.06,2.92.05-.24.08-.49.14-.73.1-.41-.15-.81-.56-.9-.4-.1-.8.15-.9.55-.7,2.98-.69,6.65-.71,8.9,0,.6-.35,1.92.16,2.69.36.55,1.2.39,1.35-.24.15.21,0,.57-.13.8-.81,1.41-2.45,1.31-2.99.34-.2-.37-.14-1.25-.19-1.85-.21-2.46-.67-7.8-1.03-12.09-.04-.41-.4-.72-.81-.68-.42.03-.72.39-.69.81l.29,3.42c-2.78.15-5.48.03-8.21-.37.01-.1.01-.19.02-.29.04-.41-.26-.78-.68-.81-.41-.04-.77.26-.81.68-.08.81-.14,1.63-.19,2.45-.25,4.05-.78,5.23-.87,7.7-.02.71.87,1.05,1.33.51.09.45-1.03,1.27-1.74,1-.64-.26-.81-1.47-.93-2.35-.4-2.99-.44-3.86-.44-7.87-.01-2.72.31-5.43.95-8.06.04-.18,0-.37-.08-.54-1.68-3.07-2.88-7.57-1.98-11.3.04-.15.47-2.27.78-2.05.48.34-.53,2.41.47,6.59.36,1.49.77,2.37,1.02,3.02.75,1.93,1.29,2.57,3,1.92.11-.05.21-.09.29-.11,3.3-.87,6.8-1.32,10.22-1.13.19.01.34-.05.47-.14,1.36.65,2.91,1.16,4.43,1.38-.29.9-.43,1.81-.11,2.7.26.69.79,1.24,1.43,1.47.78.27,1.67.04,2.16-.58.26-.32.21-.79-.11-1.05-.33-.26-.8-.21-1.06.11-.09.12-.31.16-.49.1-.22-.08-.42-.29-.52-.57-.24-.66.02-1.44.25-2.07.47,0,.41,0,.61-.02.56-.05,1.35-.23,1.58-.29.24,1.26.33,2.31.33,3.15,0,2.33-.23,9.04-.54,12.18-.06.65-.28,2.96-.09,3.59s.99.71,1.33.19c.05.03.1.12.1.21,0,.15-.08.33-.22.48Zm-.93-23.48c.1-.06.54-.18.84-.64.6.79.24,2.25-.57,2.63-1.86.88-4.36.5-6.33-.25-1.32-.49-2.95-1.04-2.95-2.39,0-.25.06-.5.17-.73.33.46.88.68,2.34,1.18,2.21.75,5.23.66,6.5.2Zm19.42-7.48c-6.19,0-10.02-1.72-14.93-4.17-2.04-1.01-2.17-1.46-3.1-1.76-.34-.14-1.09-.31-2.1-1.05-.33-.25-.8-.18-1.05.16-.24.33-.17.8.16,1.05.29.21.6.38.92.55-.79,1.17-.88,3.35-.94,4.77,0,.42-.28,3.15.46,6.65-.11.01-.22.03-.3.04-1.81.3-3.72.05-5.37-.7-.13-.05-.27-.1-.4-.15.31-9.73-1.85-17.85-2.19-18.28-.25-.66-.28-1.48-.28-2.22-.02-1.83.54-3.75,1.37-5.09.1,1.67.33,3.27.6,4.46.41,2.13.48,3.19,1.59,5.07,2.8,4.7,7.91,1.88,7.78-2.45,4.28.22,9.84-1.03,14.01-2.16,1.02-.28,3.41-.95,4.38-1.37-.33,1.99,0,4.08,1.11,5.7,1.35,1.97,3.68,3.22,6.07,3.34,2.01.11,4.05-.64,5.64-1.64.1,1.95-.16,3.03-.54,3.95-.17-.01-.34.03-.49.14-1.43,1.05-3.4,1.43-5.12.99-.41-.11-.81.13-.92.53-.1.41.14.81.54.92.22.06.45.09.68.13-.17.43-.41.96-.66,1.55-2.28.7-4.66,1.04-6.92,1.04Zm8.39,8.79c.37.27.74.4,1.04.5.45.16.6.22.74.61.2.6-.06,1.37-.6,1.74-.97.66-2.54.28-2.86-1.84v-.04c0-.4-.3-.73-.71-.75-.42-.02-.76.29-.79.71-.05,1.01-2.13,1.18-2.93.68-.75-.47-1.07-1.56-.67-2.29.38-.69,1.5-.96,2.09-.46.38.33.98.19,1.18-.28,1.02-2.45,3.51-7.94,4.22-9.72.99-.01,1.48-.18,1.59-.2.23-.05.47-.09.7-.16-.1.45.1,1.07-1.75,6.93-.49,1.55-.71,2.56-1.41,3.52-.25.33-.17.8.16,1.05Z"></path><path class="cls-1" d="m17.09,31.54c-.33,1.55-.37,3.2-.11,4.77.07.41-.2.8-.61.87-.42.06-.8-.22-.87-.62-.29-1.75-.25-3.6.12-5.34.09-.4.49-.66.89-.57.41.09.67.49.58.89Z"></path><path class="cls-1" d="m20,33.33c-.49.79-.78,1.7-.83,2.63-.02.4-.35.71-.75.71-.43,0-.77-.37-.75-.79.07-1.18.43-2.34,1.05-3.34.22-.36.68-.46,1.04-.25.35.22.46.68.24,1.04Z"></path><path class="cls-1" d="m9.88,42.3c-.37.17-.82.01-.99-.37-1.21-2.63-1.69-5.54-1.39-8.42.04-.41.41-.71.82-.66.41.04.71.41.67.82-.27,2.61.16,5.25,1.26,7.64.17.37.01.82-.37.99Z"></path><path class="cls-1" d="m7.66,42.7c-.32.26-.79.21-1.05-.11-.71-.87-1.18-1.92-1.35-3.04-.06-.4.22-.79.62-.85.42-.07.8.21.86.62.14.85.49,1.66,1.03,2.33.26.32.21.79-.11,1.05Z"></path><path class="cls-1" d="m53.44,23.97c.21.09.45.07.66-.02.74-.33.9-1.94-.13-1.95-.77,0-1.32,1.6-.52,1.97Z"></path><path class="cls-1" d="m57.34,24.55c.07-.21.05-.46-.09-.63-.55-.67-1.71.49-1.19,1.07.33.37,1.1.1,1.29-.45Z"></path><path class="cls-1" d="m53.89,26.68c.05.21.38.33.57.32.68-.05.91-1.06.27-1.22-.41-.1-.93.55-.84.91Z"></path><path class="cls-1" d="m34.44,20.87c.21-.63.07-1.36-.36-1.86-.35-.41-1.38-.99-1.87-.48-.52.54.08,1.93.42,2.42.59.85,1.48.89,1.81-.08Z"></path><path class="cls-1" d="m62.16,61.92c-.8,1.29-1.96,1.21-2.4.21-.14-.34-.18-.7-.19-1.07-.03-1.24.13-4.41,2.14-3.64,1.72.66,1.19,3.3.45,4.5Z"></path></g></svg> 