<svg width="512" height="512" viewBox="0 0 512 512" fill="none" xmlns="http://www.w3.org/2000/svg">
<path d="M450.562 61.44C384.002 -5.11998 276.482 -5.11998 209.922 61.44C151.554 119.808 144.386 211.968 189.442 277.504L142.338 324.608L90.1136 272.384C77.8256 260.096 57.3456 260.096 45.0576 272.384C32.7696 284.672 32.7696 305.152 45.0576 317.44L97.2816 369.664L20.4816 446.464C8.19362 458.752 8.19362 479.232 20.4816 491.52C32.7696 503.808 53.2496 503.808 65.5376 491.52L142.338 414.72L194.562 466.944C206.85 479.232 227.33 479.232 239.618 466.944C251.906 454.656 251.906 434.176 239.618 421.888L187.394 369.664L234.498 322.56C301.058 367.616 392.194 361.472 450.562 302.08C517.122 235.52 517.122 128 450.562 61.44ZM405.506 257.024C363.522 299.008 295.938 299.008 253.954 257.024C211.97 215.04 211.97 147.456 253.954 105.472C295.938 63.488 363.522 63.488 405.506 105.472C447.49 147.456 447.49 216.064 405.506 257.024Z" fill="#E60076"/>
</svg>
