<?xml version="1.0" encoding="UTF-8"?> <svg xmlns="http://www.w3.org/2000/svg" id="Layer_1" data-name="Layer 1" viewBox="0 0 76 76"><defs><style> .cls-1, .cls-2 { stroke-width: 0px; } .cls-2 { fill: #fff; } </style></defs><path class="cls-2" d="m9.93,17.4l5.14-1.37-4.27-4.44c-.5-.52-.05-1.37.65-1.26,6.49.95,6.34.96,6.74.99-.04-.24-.11-.34-1.95-5.05-.25-.65.44-1.27,1.06-.93l4.69,2.54c.37.2.5.65.3,1.02-.19.36-.65.5-1.01.3l-2.89-1.57,1.1,2.82c.13.32.46,1.17-.09,1.85-.54.65-1.42.52-1.75.47l-4.25-.63,3.63,3.77c.4.41.2,1.1-.35,1.24l-4.74,1.26c1.99,1.19,4.18,2.06,6.44,2.53.4.09.66.49.58.89-.09.4-.48.67-.89.58-2.99-.63-5.89-1.9-8.38-3.68-.51-.37-.37-1.17.24-1.33Z"></path><path class="cls-2" d="m66.26,58.36l-.73-.22.68.31c-.79,1.69-2.07,3.68-3.51,5.26-5.54,6.06-13.02,7.04-19.22,7.04-4.23,0-8.21-.57-12.44-2.26-5.66-2.25-8.41-5.13-10.14-8.39-1.14.04-3.83-.21-4.26-.28-7.76-1.42-12.74-9.1-9.39-16.63.01-.08.02-.16.04-.24,1.59-4.55,4.9-8.29,9.67-8.04.57-4.13,2.94-5.93,5.67-6.99.65-.26,1.3-.49,1.96-.7.52-.91,1.07-1.66,2.02-2.38,0-1.54.39-3.17,1.05-4.73-4.12-1.54-4.72-7.64-1.19-10.73,1.55-1.36,3.73-1.89,5.68-1.38,1.99.51,3.58,2.08,4.11,4.01.12-.05.25-.11.38-.15-.9-1.88.83-3.79,3.32-2.56.06-1.15,1.08-1.74,2.03-1.64,1.56.16,3.4,2.09,4.11,3.49.56.11,1.1.25,1.63.42.62-1.46,1.85-2.91,3.35-3.7,2.22-1.17,5.24-1.06,7.36.45,1.38.99,2.43,2.63,2.7,4.53.23,1.59-.07,2.74-.71,3.93-.67,1.24-1.64,2.24-2.97,2.95.72,1.44,1.23,3.05,1.57,5,1.28,1,.77.29,2.21,2.32.93.29,1.85.61,2.75,1.03,2.32,1.02,4.82,3.42,5.27,5.65.11.47.25,1.38.27,1.87.97,8.85-.72,17.51-3.27,22.76Z"></path><g id="Cute_Hamster" data-name="Cute Hamster"><path class="cls-1" d="m69.53,35.6c-.02-.49-.16-1.4-.27-1.87-.45-2.23-2.95-4.63-5.27-5.65-.9-.42-1.82-.74-2.75-1.03-1.44-2.03-.93-1.32-2.21-2.32-.34-1.95-.85-3.56-1.57-5,1.33-.71,2.3-1.71,2.97-2.95.64-1.19.94-2.34.71-3.93-.27-1.9-1.32-3.54-2.7-4.53-2.12-1.51-5.14-1.62-7.36-.45-1.5.79-2.73,2.24-3.35,3.7-.53-.17-1.07-.31-1.63-.42-.71-1.4-2.55-3.33-4.11-3.49-.95-.1-1.97.49-2.03,1.64-2.49-1.23-4.22.68-3.32,2.56-.13.04-.26.1-.38.15-.53-1.93-2.12-3.5-4.11-4.01-1.95-.51-4.13.02-5.68,1.38-3.53,3.09-2.93,9.19,1.19,10.73-.66,1.56-1.05,3.19-1.05,4.73-.95.72-1.5,1.47-2.02,2.38-.66.21-1.31.44-1.96.7-2.73,1.06-5.1,2.86-5.67,6.99-4.77-.25-8.08,3.49-9.67,8.04-.02.08-.03.16-.04.24-3.35,7.53,1.63,15.21,9.39,16.63.43.07,3.12.32,4.26.28,1.73,3.26,4.48,6.14,10.14,8.39,4.23,1.69,8.21,2.26,12.44,2.26,6.2,0,13.68-.98,19.22-7.04,1.44-1.58,2.72-3.57,3.51-5.26l-.68-.31-.73-.22c-4.43,9.01-12.55,11.5-22.51,11.32-3.74-.08-7.34-.8-10.69-2.14-6.6-2.63-9.09-6.08-10.82-11.03-2.34-6.69-2.9-13.14-2.41-20.12.08-.46.02-.9.27-1.86.76,1.22,2.01,2.09,3.3,2.74-.97,1.38-1.19,2.99-.57,4.34.37.8,1.64,2.52,3.04,2.52h.02c.27,0,.69-.07,1.09-.43,1.42,1.11,3.4,1.06,4.74-.25,1.65,1.05,4.16-.27,4.65-2.81h0v-.06c.85.09,1.7.16,2.55.22,2.21,1.15,4.68,1.24,6.92.11,1.91-.07,3.81-.22,5.71-.46.7,1.68,2.76,3.47,4.18,2.2,1.4,1.08,3.38,1.05,4.74-.26.34.22.75.35,1.17.37,1.07.04,1.8-.58,1.9-.64,1.06-.77,1.67-2.16,1.67-3.51,0-.46-.07-.92-.22-1.34h-.01v-.03c1.66-.61,3.55-1.32,4.2-3.01.03.13.13.33.26,1.38.03.17.04.33.06.55.63,5.77.16,11.71-1.35,17.19-.32,1.16-.63,2.06-.93,2.83-.31.78-.61,1.43-.91,2.08l.68.32.73.22c2.55-5.25,4.24-13.91,3.27-22.76Zm-52.69.8c-.03.45-.11,2.18-.11,2.28-1.89-.65-3.8-.67-5.54.32,1.67-1.9,3.7-2.69,5.65-2.6Zm1.7,17.49c-2.28-.35-4.44-1.61-5.8-3.43-2.35-3.15-2.22-7.67.28-10.6l.08-.02c1.21-.3,2.75.01,3.61.47-.04,5.23.69,9.37,1.83,13.58Zm7.82-42.02c.29-.52.66-.98,1.09-1.36,1.18-1.02,2.87-1.44,4.32-1.06,1.49.38,2.72,1.61,3.07,3.05,0,.05.04.08.05.11-.8.4-1.57.86-2.29,1.37-1.49-2.55-4.73-3.27-6.24-2.11Zm7.08,28.04c-.25,1.25-1.2,1.97-1.94,1.97-.21-.01-.4-.11-.53-.24.26-.73.38-1.5.34-2.27-.03-.42-.38-.74-.8-.71-.41.03-.73.38-.7.79.04.74-.11,1.47-.44,2.13-.04.07-.05.16-.06.24-.85.95-2.29,1.06-3.32-.18-.02-.02-.04-.03-.05-.04-.28-.66-.39-1.39-.31-2.1.05-.41-.24-.79-.66-.84-.41-.04-.78.25-.83.66-.11.95.04,1.92.4,2.8-.04.04-.09.07-.13.07-.21,0-.55-.22-.87-.53-.32-.32-.63-.73-.81-1.12-.68-1.48.25-3.76,3.15-4.67,4.59-1.52,8.15,1.15,7.56,4.04Zm16.94-3.67c-.34-.18-2.08-1.2-2.25-1.31-.42-.29-1-.08-1.15.41-.79,2.68-3.51,4.58-6.09,4.43-1.88-.06-3.69-1.02-4.7-2.31-.39-.5-.74-.78-1.44-.78-.17,0-.34.02-.51.07-.53-.66-.75-1.05-1.69-1.67-.09-.07-.18-.13-.28-.19-1.75-1.03-3.81-1.13-5.77-.74-.19.04-.39.09-.58.14-1.78-2.47-.92-6.22,1.52-8.16.06-.01.12-.01.18-.03.37-.14.85-.03,1.12.27.15.15.35.23.55.23.65,0,1-.79.54-1.27-.44-.47-1.06-.72-1.69-.76.08-3.09,1.83-6.54,4.51-8.75,1.49-1.23,3.27-2.17,5.14-2.76.13.08.22.17.66.34-.72.73-1.95,2.23-2.12,3.24-.11.62.06,1.22.47,1.61.45.44,1.07.53,1.71.47,1.38-.12,2.69-.71,3.7-1.66.3-.28.31-.76.03-1.06-.29-.3-.76-.32-1.06-.03-1.31,1.24-3.13,1.39-3.34,1.2-.02-.02-.06-.13-.04-.27.04-.19.15-.4.3-.65.63-1.01,1.42-1.89,2.34-2.64.49-.39.31-1.18-.32-1.31-.76-.17-1.75-.37-2.1-1.07-.29-.55.03-1.13,1.05-.69.51.22,1.06.6,1.77.76.59.13,1.09-.47.85-1.03-.33-.79-.4-1.35.42-1.04.15.06.32.14.44.21,1.15.69,2.11,1.94,2.52,3.12.19.52.91.72,1.3.19.31.08.61.17.91.26-.07.36-.13.72-.15,1.08-.02.42.29.77.7.8.42.02.77-.29.8-.71.1-1.66.93-3.32,2.3-4.41.27-.21.55-.41.85-.57,2.13-1.12,5.24-.82,6.9,1.46-2.37-1.41-5.44-.58-6.65,2.08-1.26,2.78-.75,3.94,1.15,6.31.21.25.42.51.69.68.02.01.05.02.07.03-.1.54.37.96.86.87.43-.07.85-.18,1.26-.31.61,1.19,1.06,2.52,1.38,4.14-.93.06-1.85.37-2.64.88-.35.23-.45.69-.23,1.04.23.35.69.44,1.04.22,1.16-.75,2.35-.93,3.41-.03,1.8,1.88,1.77,4.46.79,6.69h0c-3.06-1-7.78,0-9.43,2.98Zm9.32,4.37c.27-.74.4-1.52.35-2.3-.02-.42-.37-.74-.79-.71-.42.03-.73.38-.71.8.05.73-.1,1.46-.43,2.12-.05.08-.06.17-.07.26-.83.91-2.29,1.05-3.31-.19-.01-.03-.04-.03-.06-.05-.27-.66-.39-1.39-.3-2.1.04-.41-.25-.78-.66-.83-.41-.05-.79.24-.83.65-.11.95.03,1.92.39,2.81-.03.04-.07.07-.11.07-.41.02-1.24-.79-1.64-1.56l-.05-.09c-.55-1.22.05-2.66.99-3.51,1.82-1.63,5.53-2.05,7.39-1.07,1.08.5,1.92,1.39,2.24,2.38,0,.01,0,.02.01.03.73,2.32-1.46,4.16-2.41,3.29Z"></path><path class="cls-1" d="m43.75,54.36c-1.78-.51-4.01.56-5.41,1.6-1,.74-1.85,1.7-2.43,2.8-.32.61-.57,1.35-.28,1.97.32.68,1.15.95,1.9.99,1.85.09,3.64-.82,5.49-.71.94.05,1.84.37,2.76.61.91.25,1.88.42,2.79.2.92-.22,1.77-.94,1.88-1.88.1-.83-.38-1.62-.93-2.26-1.5-1.74-3.59-2.71-5.76-3.33Z"></path><path class="cls-1" d="m50.38,52.58c-.76.61-1.72,1.96-1.59,2.97.13.99,1.18,1.68,2.18,1.64,1-.04,1.89-.66,2.54-1.42.39-.46.72-1,.84-1.6.51-2.63-2.4-2.84-3.97-1.58Z"></path><path class="cls-1" d="m47.06,52.29c.86-.05,1.66-.5,2.26-1.11.76-.76,1.26-1.85,1.08-2.91-.15-.85-1.06-1.88-1.96-2.02-.86-.14-2.01.67-2.58,1.25-.08.08-.16.16-.23.25-.78.92-1.33,2.29-.74,3.41.4.76,1.3,1.18,2.16,1.13Z"></path><path class="cls-1" d="m39.53,52.11c.85.35,1.92.23,2.57-.42.49-.49.69-1.21.74-1.91.06-.94-.14-1.92-.72-2.66-1.19-1.51-3.91-1.91-4.73.16-.37.93-.19,2.01.25,2.92.4.83,1.05,1.56,1.9,1.91Z"></path><path class="cls-1" d="m36.41,56.13c1.01-.3,1.64-1.44,1.51-2.49s-.9-1.95-1.84-2.42c-.83-.41-2.38-.85-3.2-.17-1.06.88-.98,2.5-.21,3.52.45.6,1.1,1.03,1.79,1.33.62.26,1.31.41,1.95.22Z"></path><path class="cls-1" d="m34.05,27.91c1.22-.01,2.19-1.12,2.18-2.48-.01-1.36-1.01-2.45-2.23-2.43-1.22.01-2.19,1.12-2.18,2.48.01,1.36,1.01,2.45,2.23,2.43Z"></path><path class="cls-1" d="m47.6,27.77c1.23-.01,2.21-1.12,2.2-2.48-.01-1.36-1.02-2.45-2.25-2.43-1.23.01-2.21,1.12-2.2,2.48.01,1.36,1.02,2.45,2.25,2.43Z"></path><path class="cls-1" d="m44.01,28.54c-.03-.41-.39-.72-.8-.69-.42.03-.73.39-.69.8.03.47-.32.96-.76,1.09-.45.13-1.01-.11-1.23-.52-.04-.08-.09-.14-.15-.2.3-.11.6-.33.77-.53.32-.38.39-1.01.05-1.38-.41-.43-1.04-.34-1.61-.15-.92.32-.98.96-.55,1.46.11.14.31.32.52.46-.21.1-.37.29-.42.52-.05.23-.52.37-.97-.08-.19-.2-.36-.49-.51-.89-.14-.39-.57-.59-.96-.45s-.59.57-.45.96c.37,1.01.84,1.51,1.37,1.83-.09,2.27,1.31,4.38,3.38,3.86.64-.16,1.2-.58,1.54-1.15.52-.86.45-1.88.35-2.64.73-.51,1.19-1.39,1.12-2.3Zm-2.76,4.17c-.13.23-.37.4-.62.47-1,.25-1.47-1.09-1.49-2.12.28-.05.55-.15.77-.31.44.32.97.51,1.52.52.05.57.05,1.07-.18,1.44Z"></path><path class="cls-1" d="m22.29,8.9c-.19.36-.65.5-1.01.3l-2.89-1.57,1.1,2.82c.13.32.46,1.17-.09,1.85-.54.65-1.42.52-1.75.47l-4.25-.63,3.63,3.77c.4.41.2,1.1-.35,1.24l-4.74,1.26c1.99,1.19,4.18,2.06,6.44,2.53.4.09.66.49.58.89-.09.4-.48.67-.89.58-2.99-.63-5.89-1.9-8.38-3.68-.51-.37-.37-1.17.24-1.33l5.14-1.37-4.27-4.44c-.5-.52-.05-1.37.65-1.26,6.49.95,6.34.96,6.74.99-.04-.24-.11-.34-1.95-5.05-.25-.65.44-1.27,1.06-.93l4.69,2.54c.37.2.5.65.3,1.02Z"></path></g></svg> 