<svg id="Layer_1" enable-background="new 0 0 76 76" viewBox="0 0 76 76" xmlns="http://www.w3.org/2000/svg"><g id="Cute_Hamster"><path d="m16.6385117 59.8196068c.4333248.0760231 3.1222019.3254776 4.2592163.2841797 1.7274532 3.2593269 4.4846306 6.1394234 10.1455688 8.3940468 4.2236328 1.6867523 8.2110481 2.2553711 12.4375 2.2553711 6.1987305 0 13.6806641-.984375 19.2148438-7.0366249 1.4414673-1.5800095 2.7242813-3.5688667 3.5107422-5.2583008l-.6796875-.3168945-.7280273-.2211914c-4.4325981 9.0175438-12.5505981 11.5058174-22.5112305 11.3212929-3.7421875-.0800781-7.3378906-.7988281-10.6884766-2.1367188-6.5943279-2.6272888-9.0870724-6.0794983-10.8226318-11.0327187-2.3354092-6.6859894-2.9003124-13.1394386-2.4102783-20.1201172.0795803-.453373.0224037-.8943367.2744751-1.8630371.7573662 1.2234383 2.0110512 2.0900955 3.3007202 2.7434082-.9730225 1.378418-1.1921997 2.9907227-.5698242 4.3452148.3681641.7924805 1.6416016 2.5200195 3.0390625 2.5200195h.0185547c.2719727-.0029297.6938477-.0771484 1.0883789-.4321289 1.4181194 1.1059303 3.4030571 1.0577774 4.7407227-.2519531 1.6475849 1.0471954 4.1588669-.2697105 4.6479492-2.8105469.0001221-.0004883 0-.0009766.0001221-.0014648.0001831-.0009766.0006714-.0019531.0008545-.0029297.0037842-.0185547.0042725-.0375977.0078735-.0561523.8464355.0939941 1.6953735.1633301 2.5446777.2233887 2.2080231 1.1453018 4.6768417 1.2354355 6.9196167.1108398 1.9082031-.0678711 3.8122559-.2231445 5.7067261-.4621582.7041016 1.677639 2.7649269 3.4715691 4.1795044 2.1948242 1.4021454 1.0887489 3.3847275 1.0553169 4.7416992-.2524414.3427734.2163086.7514648.3476563 1.175293.3642578 1.0669861.0471573 1.8009834-.5809937 1.9018555-.6345215.0001831 0 .0003052-.0002441.0004883-.0002441 1.4188042-1.0298653 2.0215912-3.1841393 1.4404297-4.8549805 0-.0004883-.0004883-.0014648-.0004883-.0019531-.0025635-.0078125-.0064087-.0151367-.0089722-.0229492 1.6601944-.6114731 3.5524445-1.3224792 4.2040405-3.0112305.0326157.132309.1253738.3306503.2609863 1.3823242.0253906.1645508.0429688.3291016.0551758.5454102.6298828 5.769043.1640625 11.7128906-1.3476563 17.1889648v.0014648c-.6340332 2.3133888-1.2363586 3.6105652-1.8417969 4.9111328l.6801758.3168945.7290039.21875c2.5569916-5.2485657 4.2431335-13.9021034 3.2749023-22.7573242-.0251007-.4862785-.163826-1.3960037-.2744141-1.8701172-.4511337-2.226059-2.9488297-4.6243534-5.2646484-5.6513672-.8973999-.4165039-1.8214111-.7402344-2.7563477-1.0270996-1.4366226-2.0339966-.9207764-1.3220673-2.203125-2.3220215-.3442383-1.9501953-.8505859-3.5629883-1.5717773-4.9956055 1.3332024-.7083569 2.3020096-1.7171669 2.9692383-2.9528809.644989-1.1871977.9444809-2.3362732.7113647-3.9331055-.2733612-1.892519-1.3167725-3.5339041-2.7045288-4.5300293-2.1119003-1.5059156-5.1398125-1.6138854-7.355957-.4443359-1.4989281.7925291-2.7283745 2.2383299-3.3525391 3.6982422-.53125-.168457-1.0693359-.3071289-1.6298828-.4189453-.7043571-1.4047031-2.5448189-3.331687-4.105957-3.4941406-.9534225-.1005845-1.9704094.4921417-2.0341187 1.6413574-2.4860573-1.2262506-4.2201042.6808939-3.3184204 2.557373-.1298218.046875-.2545166.1069336-.3831787.1569824-.5266724-1.9284668-2.1193237-3.4987793-4.1065674-4.0178223-1.9467773-.5092773-4.125.0234375-5.6821289 1.3867188-3.5314045 3.0901232-2.9247189 9.1864967 1.1969604 10.732666-.6676636 1.5568848-1.055603 3.1804199-1.0524292 4.7243652-.9505043.7229176-1.5045052 1.4753094-2.0263672 2.3850098-.6558228.2106934-1.3096313.4355469-1.9542236.6933594-2.7365456 1.0623741-5.1037388 2.8663921-5.6690674 6.9882813-4.7699881-.2461967-8.0838108 3.4936752-9.6696777 8.045166-.0276489.0795898-.0372925.1606445-.0378418.2409668-3.3521826 7.5245172 1.6239872 15.2070047 9.383545 16.6237795zm1.9061279-5.9257813c-2.2816162-.3518066-4.4401255-1.6098633-5.802125-3.4306641-2.3514404-3.1533203-2.2178955-7.6696777.2766724-10.6010742l.0778198-.0209961c1.2109442-.2925682 2.7557402.0138016 3.6120005.4692383-.0381565 5.2286187.6896801 9.3715973 1.8356323 13.5834961zm12.9556885-12.0117187c-.2143555-.0083008-.3969116-.1088867-.5308228-.2397461.2633667-.7255859.381897-1.4985352.3359985-2.2724609-.0244141-.4140625-.3793945-.7314453-.7924805-.7045898-.4135742.0244141-.7290039.3793945-.7045898.7924805.0429688.7333984-.1083984 1.4677734-.4379883 2.1240234-.0385742.0766602-.0542603.1577148-.0650635.2382813-.844101.9546776-2.2832222 1.0609741-3.3182373-.1796875-.0132446-.0158691-.0335083-.0222168-.0478516-.0366211-.2759399-.6611328-.3917847-1.3918457-.3081055-2.1030273.0483398-.4111328-.2460938-.7841797-.6577148-.8325195-.4121094-.0454102-.7841797.2460938-.8320313.6577148-.1112061.9448242.0367432 1.9160156.3938599 2.7993164-.0393066.0405273-.0803223.0717773-.1228638.0722656-.0009766 0-.0024414 0-.003418 0-.4257813 0-1.3173828-.8774414-1.6757813-1.6489258-.6799164-1.4799614.2451973-3.7632599 3.1450195-4.6757813 4.5894966-1.5224037 8.1523209 1.1476326 7.5571289 4.0366211-.2429006 1.2570953-1.1978605 1.9713706-1.9350583 1.9726562zm23.2436523-1.2929688c-.0168457-.020752-.0425415-.029541-.0612793-.0483398-.2744751-.6601563-.3898926-1.3886719-.3063965-2.0976563.0483398-.4111328-.2460938-.7841797-.6577148-.8325195-.4116211-.0458984-.7841797.2460938-.8325195.6577148-.1110229.9460449.0380859 1.9189453.3967285 2.8037109-.0377197.0390625-.0769653.0693359-.1169434.0708008-.4047852.0166016-1.2338867-.7919922-1.6333008-1.5566406l-.0488281-.0966797c-.5560989-1.2145729.0424652-2.6515198.987793-3.5087891 1.8227615-1.6310806 5.5297775-2.0469284 7.3852539-1.0688477 1.0810547.5004883 1.9194336 1.390625 2.2412109 2.3813477h.0004883c.0029297.0092773.0058594.0185547.0092773.027832.7321777 2.3227425-1.453743 4.1590729-2.4037476 3.2900391.2705078-.7333984.3934937-1.5158691.3466187-2.2993164-.0244141-.4130859-.3662109-.7363281-.7929688-.7041016-.4135742.0244141-.7290039.3798828-.7041016.7929688.043457.7329102-.1079102 1.4672852-.4375 2.1235352-.041626.0827637-.0608521.1699219-.0701904.2570801-.8243217.9108925-2.2893714 1.0528336-3.3018798-.1921387zm-27.2890625-30.0742187c1.1713867-1.0239258 2.8642578-1.4423828 4.315918-1.0644531 1.4853516.3876953 2.7197266 1.6166992 3.0717773 3.0576172.0100098.0410156.0354004.0727539.0515137.1103516-.8018799.3962402-1.571167.8508301-2.2949829 1.3652344-1.4880962-2.5481911-4.7276115-3.2679758-6.2359619-2.1132813.2869873-.5117188.6544799-.9729005 1.0917358-1.3554688zm-.013916 15.6140137c.0582886-.0065918.1165161-.0056152.1740723-.0266113.3774414-.1376953.8525391-.0249023 1.1293945.2670898.1474609.1552734.3457031.2338867.5444336.2338867.6521664 0 .9993763-.7854195.5444336-1.2661133-.4459229-.4694824-1.0633545-.71875-1.6959229-.7624512.0848999-3.0927734 1.8303833-6.5375977 4.510376-8.7536621 1.4963379-1.229248 3.2720337-2.1691895 5.1455688-2.753418.1280594.0779095.218277.1634588.6571655.331543-.7164841.7313519-1.9493027 2.2382116-2.125 3.2490234-.1069336.6147461.0688477 1.2138672.4702148 1.6030273.4574356.4444542 1.0765839.5323334 1.7143555.4750977 1.3779297-.1235352 2.690918-.7138672 3.6977539-1.6630859.3012695-.2841797.3154297-.7592773.03125-1.0605469-.2851563-.3007813-.7587891-.3144531-1.0605469-.03125-1.3122749 1.2383461-3.1325264 1.3910789-3.3383789 1.203125-.0249023-.0239258-.0615234-.128418-.0371094-.2695313.0336914-.1914063.1445313-.3989258.3012695-.6508789.6264648-1.0068359 1.4116211-1.8935547 2.3334961-2.6362305.4882202-.3920574.3072357-1.1846781-.3134766-1.3173828-.7598839-.1622906-1.7501564-.3642178-2.1082764-1.0644531-.2830772-.5494499.029377-1.1282692 1.0511475-.6923828.51231.21838 1.0596237.5995111 1.7695313.7597656.5969734.1319981 1.097477-.4731798.8569336-1.0327148-.3363036-.7821626-.4078673-1.3453111.416443-1.0373535.1528549.057621.3179741.1392498.4365845.2116699 1.1564102.689538 2.1164818 1.9342041 2.5258789 3.1166992.1825066.525856.9057579.7231398 1.298584.1945801.3078613.0749512.6113892.1628418.9121094.2585449-.0750732.3564453-.1310425.7167969-.1525879 1.0820313-.0244141.4135742.2910156.7685547.7041016.7929688.4174805.0288086.7685547-.2910156.7929688-.7041016.0983009-1.6627312.9307137-3.3241682 2.3028564-4.4125977.269165-.2131348.5500488-.4106445.8519287-.5693359 2.1231766-1.123601 5.2405281-.8184309 6.901062 1.4643555-2.3783455-1.4158955-5.4483147-.5828419-6.6549072 2.0786133-1.2566757 2.7720146-.7463684 3.9409676 1.1543579 6.3039551.2037964.253418.4130859.5119629.689209.6835938.0220337.0136719.0487671.0163574.0715942.0283203-.1003609.5416374.3655586.956377.852356.8752441.4341431-.0712891.8528442-.1826172 1.2617798-.314209.6160278 1.1940918 1.0598755 2.5209961 1.3834229 4.1379395-.9360962.0661621-1.8519897.3691406-2.6452026.8833008-.3476563.2250977-.4467773.6894531-.2216797 1.0371094.2254333.3481216.6897049.4465504 1.0371094.2216797 1.1553459-.7482719 2.3475494-.9317341 3.4067383-.034668 1.7995682 1.887352 1.7749939 4.4693584.7958374 6.6918945-.0021362.0048828-.0048828.0092773-.007019.0141602-3.0537415-1.0139465-7.7734108-.0231819-9.4303589 2.9711914-.3416138-.1846542-2.0753899-1.2034035-2.2490845-1.3120117-.4203148-.2897949-1.0009613-.0850754-1.1455078.4047852-.7925148 2.6802444-3.5080338 4.5890312-6.0966797 4.4326172-1.8746681-.060421-3.6904831-1.019825-4.6992188-2.3125-.389576-.4990463-.7349205-.7783203-1.4370117-.7783203-.1708984 0-.3422852.0263672-.512207.0678711-.529789-.6533813-.7496986-1.0448112-1.6859131-1.6672363-.0953369-.0632324-.184021-.1325684-.2833862-.190918-1.7488384-1.0275803-3.8076496-1.1260071-5.7670288-.7341309-.1952515.0400391-.3900146.0866699-.5813599.1386719-1.7754576-2.4741861-.9190485-6.2256967 1.5215452-8.1662599zm-10.6057129 10.2736816c-.0247231.4474449-.1028271 2.1846428-.1069336 2.284668-1.889081-.6550484-3.7990131-.671814-5.5385752.3149414 1.6702662-1.9001808 3.7023907-2.6859703 5.6455088-2.5996094z"/><path d="m43.7464218 54.3603783c-1.7836304-.5068359-4.0099487.5605469-5.4099731 1.6022949-.9995117.7436523-1.84552 1.697998-2.4320068 2.7993164-.3243408.6088867-.574646 1.3481445-.284729 1.9743652.3152466.6809082 1.1467285.9533691 1.8961182.9882813 1.8493042.0856934 3.6409912-.8212891 5.4891968-.7148438.9414063.0544434 1.8447266.3693848 2.755249.6149902.9104614.2456055 1.875061.4230957 2.7911987.199707.9161987-.2233887 1.7686768-.9411621 1.8822021-1.8774414.1009521-.8320313-.3796997-1.6225586-.9257813-2.2583008-1.49823-1.7446288-3.5855102-2.7104491-5.7614746-3.328369z"/><path d="m50.3803329 52.5835228c-.7553711.605957-1.7213135 1.9624023-1.5923462 2.9685059.1270752.9907227 1.1847534 1.6784668 2.1827393 1.6359863.9979858-.0422363 1.894104-.6611328 2.5400391-1.4230957.3934326-.4641113.7218628-1.0019531.8378906-1.5991211.5105591-2.6286621-2.4040527-2.8374024-3.9683228-1.5822754z"/><path d="m47.0563583 52.2947044c.8578491-.0478516 1.6560669-.501709 2.2617188-1.111084.7582397-.7629395 1.2633057-1.8527832 1.0760498-2.9118652-.1511841-.8549805-1.0622559-1.8789063-1.9564819-2.0234375-.8626099-.1394043-2.0072021.6723633-2.5755615 1.251709-.0782471.079834-.1551514.1643066-.2299805.2531738-.7758789.9196777-1.3257446 2.2890625-.7375488 3.4125977.3984985.7609863 1.303955 1.1767578 2.1618041 1.1289062z"/><path d="m39.5267563 52.1120872c.8510742.3457031 1.916687.2297363 2.5668945-.4189453.4945068-.4936523.6947021-1.2148438.7402954-1.9121094.0612793-.9370117-.1399536-1.9206543-.7211914-2.6582031-1.1868286-1.5061035-3.9090576-1.9138184-4.7320557.1630859-.3699951.9335938-.1943359 2.0131836.2460938 2.9157715.402832.8254395 1.0488892 1.5649415 1.8999634 1.9104004z"/><path d="m36.4074936 56.1338158c1.0128174-.2956543 1.6403198-1.4387207 1.5126343-2.486084s-.8965454-1.9467773-1.8421631-2.4150391c-.8282471-.4099121-2.3847656-.8479004-3.1966553-.1716309-1.0587769.8818359-.9817505 2.5007324-.2123413 3.5246582.4511108.6003418 1.0966797 1.034668 1.7890625 1.3251953.6151123.2583009 1.3091431.4099122 1.9494629.2229005z"/><path d="m34.0464706 27.9094505c1.21521-.0124512 2.189209-1.121582 2.1755371-2.4777832-.0137329-1.3562012-1.0099487-2.4455566-2.2251587-2.4331055-1.21521.012207-2.189209 1.121582-2.1755371 2.4775391.013733 1.3562012 1.0099488 2.4455567 2.2251587 2.4333496z"/><path d="m47.6002426 27.7722435c1.2269287-.012207 2.2103882-1.121582 2.1967163-2.4777832-.0137329-1.3562012-1.0194702-2.4453125-2.2463989-2.4328613-1.2268677.012207-2.2103882 1.121582-2.1966553 2.4777832.0136719 1.3562011 1.0194092 2.4453125 2.2463379 2.4328613z"/><path d="m36.2503281 28.9446068c.369381 1.0137806.8436966 1.5135326 1.3712769 1.8334961-.0947075 2.2643623 1.3038177 4.3798599 3.380188 3.8554688.6347656-.1601563 1.1948242-.5791016 1.5371094-1.1499023.5169678-.861084.4468384-1.8789063.3473511-2.6416016.734375-.5061035 1.1930542-1.3862305 1.1253052-2.2973633-.0307617-.4135742-.3945313-.7182617-.8037109-.6923828-.4130859.0307617-.7231445.390625-.6923828.8037109.034668.4633789-.3134766.9624023-.7602539 1.0898438-.449707.1274414-1.0068359-.112793-1.2211914-.5234375-.0408325-.0778809-.0963135-.1433105-.1587524-.2006836.3015747-.104248.6072388-.3249512.7738647-.5231934.3245239-.3862305.3924561-1.013916.048645-1.3830566-.4057236-.4351845-1.0423012-.3460083-1.6054688-.1508789-.9244766.3199806-.978611.9548645-.5548706 1.4626465.1147461.1374512.3157959.3198242.5264893.4599609-.2114868.0944824-.3726196.2827148-.4259033.5168457-.0515709.2259216-.5149307.3716335-.9633789-.0756836-.1992188-.199707-.3676758-.4931641-.5151367-.8974609-.1416016-.3891602-.5712891-.5888672-.9614258-.4477539-.3891604.1416015-.589844.5722655-.4477541.9614257zm3.6635742 1.8046875c.4331665.3271484.967041.5124512 1.5111084.5270996.0587158.5671387.0506592 1.0639648-.1722412 1.435791-.1376953.2294922-.3691406.4042969-.6181641.4672852-1.0017662.2509384-1.4710655-1.0847054-1.4979858-2.1115723.2822265-.0539551.5518799-.1540527.7772827-.3186035z"/><path d="m9.6922216 18.7341576c2.4873047 1.7749023 5.3833008 3.0473633 8.375001 3.6801758.4147491.0852757.804821-.1800747.8891602-.5786133.0854492-.4052734-.1733398-.8032227-.5786133-.8891602-2.2539063-.4765625-4.4492197-1.3422852-6.4331064-2.5297852l4.739747-1.2602539c.548914-.1453304.7449875-.8314877.3476563-1.2446289l-3.6279306-3.7709961 4.2456064.6347656c.3320313.0498047 1.2143555.1821289 1.75-.4750977.5488281-.6733398.2158203-1.5249023.090332-1.8457031l-1.1035157-2.8188476 2.8911133 1.5668945c.3642578.1967773.8193359.0615234 1.0170898-.3022461.1972656-.3642578.0615234-.8198242-.3022461-1.0170898l-4.6948242-2.543457c-.6127396-.3328452-1.3098192.2826309-1.0556641.9326172 1.8330021 4.708231 1.9064026 4.8126392 1.9526367 5.0473633-.4027634-.0213585-.2559204-.0316334-6.7475595-.9882813-.7008448-.1077385-1.1486721.7447834-.6513672 1.2617188l4.2724609 4.440918-5.1333008 1.3647461c-.6102732.1613254-.7598723.9662971-.2426757 1.3349609z"/></g></svg>