<svg width="512" height="512" viewBox="0 0 512 512" fill="none" xmlns="http://www.w3.org/2000/svg">
<path d="M468.994 17.4082H327.682C313.346 17.4082 302.082 28.6722 302.082 43.0082C302.082 57.3442 313.346 68.6082 327.682 68.6082H406.53L312.322 162.816C239.618 108.544 136.194 113.664 70.6584 179.2C-1.02156 250.88 -1.02156 368.64 70.6584 440.32C142.338 512 260.098 512 331.778 440.32C397.314 374.784 403.458 270.336 348.162 198.656L442.37 104.448V184.32C442.37 198.656 453.634 209.92 467.97 209.92C482.306 209.92 493.57 198.656 493.57 184.32V43.0082C494.594 28.6722 483.33 17.4082 468.994 17.4082ZM296.962 404.48C244.738 456.704 159.746 456.704 107.522 404.48C55.2984 352.256 55.2984 267.264 107.522 215.04C159.746 162.816 244.738 162.816 296.962 215.04C349.186 267.264 349.186 352.256 296.962 404.48Z" fill="#2563EB"/>
</svg>
